<?xml version="1.0" standalone="no"?>
<!DOCTYPE svg PUBLIC "-//W3C//DTD SVG 20010904//EN"
 "http://www.w3.org/TR/2001/REC-SVG-20010904/DTD/svg10.dtd">
<svg version="1.0" xmlns="http://www.w3.org/2000/svg"
 width="1280.000000pt" height="1280.000000pt" viewBox="0 0 1280.000000 1280.000000"
 preserveAspectRatio="xMidYMid meet">
<metadata>
Created by potrace 1.11, written by Peter Selinger 2001-2013
</metadata>
<g transform="translate(0.000000,1280.000000) scale(0.100000,-0.100000)"
fill="#000000" stroke="none">
<path d="M6377 10314 c-1 -1 -42 -4 -92 -8 -120 -8 -230 -21 -230 -26 0 -1
-16 -3 -35 -5 -19 -2 -48 -6 -65 -10 -16 -3 -43 -8 -59 -11 -46 -9 -168 -41
-198 -53 -16 -6 -28 -9 -28 -7 0 16 -416 -147 -432 -169 -4 -5 -8 -7 -8 -3 0
12 -162 -76 -305 -166 -75 -47 -249 -172 -286 -206 -9 -8 -40 -35 -70 -60 -53
-45 -222 -211 -269 -266 -47 -53 -125 -150 -145 -178 -11 -16 -29 -40 -41 -55
-51 -64 -185 -283 -233 -381 -12 -25 -26 -52 -31 -60 -9 -13 -31 -65 -35 -80
0 -3 -5 -14 -11 -25 -6 -11 -21 -47 -34 -80 -12 -33 -28 -73 -35 -90 -14 -33
-62 -186 -71 -225 -3 -14 -6 -29 -7 -35 -2 -5 -6 -16 -11 -23 -4 -7 -5 -16 -2
-19 3 -3 1 -13 -3 -22 -5 -9 -11 -29 -14 -46 -3 -16 -12 -68 -21 -115 -8 -47
-18 -110 -22 -140 -4 -30 -8 -66 -10 -80 -4 -29 -16 -270 -16 -315 1 -57 12
-250 16 -280 3 -16 8 -57 11 -90 4 -33 8 -67 10 -75 3 -8 7 -33 11 -55 6 -42
29 -152 35 -172 2 -6 -38 -54 -89 -106 l-93 -95 180 -181 c100 -99 187 -184
193 -188 7 -4 35 -51 62 -103 27 -52 77 -141 112 -197 35 -55 64 -105 64 -110
0 -5 -27 -35 -60 -68 -33 -33 -60 -63 -60 -67 0 -5 77 -85 170 -178 94 -93
170 -172 170 -176 0 -3 -66 -73 -147 -154 -445 -447 -733 -740 -733 -745 0 -5
310 -316 357 -357 22 -20 10 -31 656 624 134 137 247 248 250 248 4 0 115
-108 248 -241 l240 -240 136 135 c75 75 139 136 142 136 4 0 67 -20 139 -44
73 -25 145 -47 160 -50 15 -3 68 -15 117 -27 108 -25 118 -27 129 -28 4 -1
-104 -114 -242 -251 l-250 -250 76 -78 c43 -42 85 -83 94 -90 15 -12 54 24
336 306 l319 319 154 0 c150 -1 315 7 375 18 16 3 47 7 69 10 22 2 40 4 40 5
0 1 11 3 25 4 14 2 43 6 65 10 22 5 51 10 65 12 14 3 43 10 65 16 22 6 49 12
60 13 11 1 28 5 37 9 9 4 22 9 30 10 7 2 20 5 28 8 8 3 65 22 127 42 61 20
132 46 157 57 25 11 48 19 51 19 3 0 18 6 33 14 15 8 73 38 130 66 57 28 145
76 195 107 51 31 107 65 125 75 17 11 32 24 32 29 0 5 5 9 11 9 9 0 72 42 89
60 3 3 34 27 69 55 163 125 389 357 506 519 11 16 31 43 45 61 47 62 135 199
153 238 6 15 15 27 19 27 5 0 8 9 8 20 0 11 4 20 8 20 27 0 236 509 258 626 1
6 9 36 17 65 15 52 40 180 53 264 3 22 7 51 10 65 4 23 10 84 19 190 2 25 4
113 4 195 0 83 0 160 0 173 1 16 110 131 371 393 203 204 370 373 370 376 0 7
-166 170 -184 180 -8 4 -39 60 -69 123 -106 223 -130 275 -147 314 l-18 39
-38 -38 -37 -37 -90 91 -91 91 -34 -32 c-19 -18 -103 -102 -187 -186 l-152
-153 -18 28 c-10 15 -18 30 -16 32 1 2 -1 7 -6 10 -8 6 -20 27 -60 101 -10 19
-24 40 -31 48 -7 8 -22 30 -32 51 -24 43 -40 69 -58 90 -7 9 -37 48 -65 86
-29 39 -56 75 -62 81 -5 6 -32 38 -60 70 -194 230 -492 474 -780 641 -94 54
-293 147 -400 186 -38 14 -79 29 -90 33 -11 4 -22 8 -25 9 -3 0 -34 10 -70 22
-56 18 -88 27 -135 39 -5 1 -21 4 -35 7 -14 3 -45 10 -70 16 -92 21 -127 27
-200 35 -30 4 -66 9 -79 12 -52 11 -463 27 -474 18z"/>
<path d="M9704 9627 c-63 -35 -91 -94 -79 -165 5 -31 15 -44 57 -72 72 -49
220 -197 265 -266 56 -86 147 -271 158 -321 2 -10 10 -37 19 -60 8 -24 13 -43
11 -43 -2 0 1 -15 6 -32 5 -18 12 -51 15 -73 4 -22 8 -49 9 -60 2 -11 4 -26 4
-32 1 -7 20 -27 44 -44 38 -28 47 -30 96 -26 64 6 103 38 124 102 13 38 13 48
-5 106 -22 70 -25 80 -27 92 0 4 -8 21 -16 37 -8 16 -15 31 -15 32 1 4 -7 30
-27 83 -63 172 -189 407 -260 485 -13 14 -23 28 -23 32 0 7 -57 64 -167 169
-45 43 -68 58 -99 62 -50 7 -68 6 -90 -6z"/>
<path d="M3397 8995 c-1 -2 -23 -5 -48 -8 -132 -16 -256 -130 -289 -266 -53
-224 122 -446 350 -442 169 3 313 122 347 287 25 118 -22 257 -116 340 -42 38
-125 75 -185 83 -31 4 -57 7 -59 6z"/>
<path d="M3238 8134 c-103 -31 -167 -159 -128 -261 19 -51 58 -96 104 -120 36
-18 125 -25 144 -10 6 5 12 6 12 2 0 -4 7 -2 15 5 8 7 15 9 15 4 0 -4 16 8 36
27 168 159 22 418 -198 353z"/>
<path d="M3270 7538 c-49 -27 -73 -64 -77 -119 -3 -50 23 -102 62 -123 11 -6
22 -14 25 -17 3 -3 25 -6 49 -8 83 -4 152 68 146 152 -8 100 -119 162 -205
115z"/>
<path d="M2446 3573 c-1 -2 -16 -4 -32 -6 -17 -2 -34 -6 -39 -9 -6 -3 -23 -8
-39 -12 -31 -8 -158 -88 -150 -95 2 -2 -5 -12 -16 -21 -11 -9 -34 -47 -51 -84
-25 -53 -32 -82 -34 -146 -6 -143 39 -242 149 -326 79 -60 217 -90 321 -70
141 28 262 131 305 260 16 49 20 165 8 218 -37 166 -183 282 -366 291 -29 1
-54 1 -56 0z m93 -57 c8 -6 15 -10 15 -8 4 12 67 -26 97 -58 102 -110 128
-321 58 -475 -30 -65 -107 -123 -172 -130 -18 -1 -40 -6 -49 -10 -10 -4 -18
-3 -18 2 0 5 -10 9 -22 10 -72 6 -146 67 -198 165 -17 32 -29 58 -26 58 2 0 0
15 -5 33 -5 17 -9 66 -9 107 0 148 51 243 165 306 26 14 146 15 164 0z"/>
<path d="M8594 3569 c-17 -9 -45 -61 -45 -86 0 -5 -8 -16 -16 -25 -9 -10 -13
-18 -8 -18 4 0 0 -11 -9 -25 -9 -14 -14 -25 -11 -25 4 0 0 -12 -8 -27 -7 -16
-21 -43 -30 -61 -9 -19 -17 -38 -17 -44 0 -9 -10 -33 -41 -103 -5 -11 -29 -69
-53 -128 -57 -139 -67 -154 -116 -168 -28 -8 -40 -17 -38 -28 3 -12 23 -15
121 -16 65 0 121 2 125 5 15 11 11 30 -5 32 -10 0 -22 2 -28 3 -5 2 -15 3 -21
4 -24 2 -21 45 7 128 16 48 33 89 38 92 7 5 215 6 243 2 3 -1 16 -31 28 -68
13 -38 26 -72 31 -77 5 -6 9 -22 9 -38 0 -28 -26 -51 -52 -46 -7 2 -13 -6 -13
-17 0 -19 7 -20 130 -20 72 0 138 1 148 3 25 6 16 24 -19 35 -16 5 -37 17 -48
26 -22 20 -57 86 -49 95 3 3 1 11 -5 19 -9 11 -55 128 -99 252 -7 22 -18 49
-23 60 -5 11 -19 47 -30 80 -12 33 -25 69 -30 80 -5 11 -16 41 -26 68 -9 26
-17 47 -18 46 0 0 -10 -5 -22 -10z m-3 -220 c11 -30 22 -58 23 -64 2 -5 6 -17
9 -25 9 -22 37 -103 40 -115 2 -12 -202 -15 -209 -3 -3 4 0 8 5 8 6 0 11 6 11
14 0 7 8 31 17 52 9 22 18 45 19 52 4 23 57 142 61 138 2 -2 13 -28 24 -57z"/>
<path d="M3270 3538 c0 -10 3 -18 8 -19 77 -8 94 -23 201 -184 l102 -153 -77
-109 c-91 -128 -154 -206 -162 -198 -3 2 -10 1 -16 -4 -7 -6 -25 -12 -41 -15
-27 -5 -49 -25 -39 -36 3 -3 66 -5 140 -5 122 -1 134 1 134 17 0 15 -16 23
-42 20 -3 -1 -11 5 -17 12 -14 16 -4 47 36 108 15 24 30 48 33 53 11 22 65
100 74 107 5 3 27 -22 49 -55 21 -34 57 -89 78 -122 40 -61 49 -94 27 -96 -48
-3 -61 -10 -53 -31 5 -11 35 -14 163 -13 136 0 157 2 160 16 2 12 -7 18 -36
23 -25 4 -53 18 -74 38 -39 37 -88 102 -88 116 0 6 -3 12 -7 14 -12 5 -113
155 -113 166 0 6 -4 12 -9 14 -21 8 -22 47 -2 67 12 12 21 23 21 26 0 7 76
109 110 148 36 42 72 65 110 72 44 8 53 14 41 29 -7 8 -51 11 -138 11 -109 0
-128 -3 -131 -16 -3 -17 23 -33 38 -24 4 3 13 -2 20 -10 9 -11 7 -24 -12 -62
-12 -26 -25 -50 -28 -53 -10 -10 -50 -69 -50 -75 0 -3 -8 -13 -17 -22 -17 -17
-20 -15 -63 53 -25 39 -51 79 -58 90 -23 36 -35 64 -30 70 5 5 28 11 51 13 4
1 7 9 7 19 0 16 -13 17 -150 17 -137 0 -150 -1 -150 -17z"/>
<path d="M4380 3540 c0 -9 6 -17 13 -18 31 -2 62 -13 76 -27 14 -13 16 -57 17
-298 0 -217 -3 -288 -13 -309 -7 -16 -18 -29 -23 -29 -6 -1 -14 -3 -20 -4 -5
-1 -19 -3 -30 -4 -12 0 -20 -8 -20 -18 0 -16 14 -18 157 -18 137 0 158 2 161
16 2 12 -7 18 -35 23 -72 12 -68 -6 -69 318 0 265 5 336 25 339 61 7 83 17 78
32 -3 9 -44 12 -160 13 -139 0 -157 -2 -157 -16z"/>
<path d="M5080 3550 c-15 -9 3 -28 33 -34 37 -7 69 -31 82 -63 11 -28 13 -483
2 -530 -9 -36 -27 -63 -42 -64 -15 -1 -28 -4 -42 -9 -5 -1 -11 -2 -15 -1 -5 0
-8 -6 -8 -14 0 -8 3 -16 8 -16 31 -5 274 -4 277 1 8 13 -11 26 -50 35 -64 16
-68 33 -70 303 -2 127 2 232 6 232 5 0 9 -3 9 -7 0 -5 22 -31 48 -59 26 -28
66 -73 88 -100 23 -27 50 -59 60 -70 11 -12 37 -43 59 -70 22 -26 45 -52 50
-58 6 -6 37 -42 70 -81 106 -124 126 -143 143 -141 15 3 17 33 19 322 2 339 2
344 21 367 13 15 59 32 75 28 5 -1 7 6 5 16 -3 16 -17 18 -141 19 -105 1 -137
-2 -137 -12 0 -17 17 -27 54 -31 42 -5 54 -18 62 -70 8 -57 11 -443 3 -443 -4
0 -24 21 -44 46 -21 26 -48 56 -59 68 -18 18 -80 89 -156 176 -12 14 -40 46
-63 71 -101 112 -152 171 -159 182 -7 12 -169 19 -188 7z"/>
<path d="M6295 3550 c-8 -13 12 -29 45 -35 19 -3 40 -11 45 -16 15 -15 16
-581 1 -611 -8 -15 -25 -26 -54 -32 -27 -7 -42 -15 -42 -25 0 -14 32 -16 264
-16 145 0 267 3 271 7 6 6 25 75 29 108 2 8 6 26 10 39 6 16 4 26 -5 32 -18
11 -26 4 -47 -44 -24 -54 -74 -97 -115 -99 -144 -7 -187 10 -188 75 -2 106 -1
477 2 519 3 53 15 62 82 67 9 0 17 9 17 19 0 16 -14 17 -155 18 -86 0 -158 -2
-160 -6z"/>
<path d="M7244 3542 c3 -17 26 -32 41 -26 6 3 22 -4 35 -14 l24 -19 1 -282 c0
-156 -3 -285 -7 -287 -5 -3 -6 -10 -2 -15 11 -18 -17 -38 -62 -45 -32 -4 -44
-11 -44 -23 0 -15 27 -16 285 -16 l286 0 9 36 c37 135 30 192 -16 126 -12 -18
-20 -35 -18 -38 5 -8 -38 -54 -64 -68 -13 -7 -65 -12 -118 -13 -85 -1 -98 1
-117 21 -20 20 -22 32 -23 156 0 87 3 136 10 138 25 9 177 -2 191 -13 8 -6 19
-26 25 -44 6 -18 17 -33 25 -33 16 0 17 2 16 97 0 130 0 130 -19 130 -10 0
-19 -7 -20 -15 -1 -8 -3 -22 -4 -31 -3 -28 -49 -42 -138 -40 l-85 1 -2 143 -3
142 28 1 c191 8 223 -2 251 -75 10 -28 25 -51 32 -51 13 0 16 34 11 141 l-2
30 -264 0 c-217 0 -263 -3 -262 -14z"/>
<path d="M9355 3551 c-5 -8 10 -33 19 -32 27 3 69 -15 75 -32 4 -11 8 -148 8
-304 0 -311 -2 -322 -59 -328 -34 -4 -50 -14 -45 -28 5 -16 299 -18 309 -3 13
19 9 23 -31 30 -21 3 -44 12 -51 20 -13 17 -22 237 -10 257 5 7 23 9 51 5 51
-7 63 -19 134 -136 85 -142 146 -187 255 -193 42 -2 56 27 19 38 -13 4 -40 26
-62 49 -40 43 -187 257 -187 273 0 5 17 19 38 30 54 31 87 73 93 118 1 6 5 20
10 31 4 12 5 25 2 28 -4 3 -8 20 -10 38 -6 59 -67 118 -139 133 -39 9 -414 14
-419 6z m385 -65 c79 -52 87 -201 14 -268 -11 -9 -32 -22 -49 -28 -42 -16
-133 -20 -138 -6 -3 10 -2 281 2 313 3 30 121 22 171 -11z"/>
<path d="M10380 3538 c0 -10 6 -18 13 -19 52 -3 91 -28 104 -66 12 -32 10
-503 -2 -545 -8 -31 -44 -58 -78 -58 -14 0 -24 -6 -24 -15 0 -19 -12 -17 144
-19 98 -1 134 2 137 11 6 15 -2 21 -43 28 -45 8 -61 26 -67 77 -8 59 -11 449
-4 453 4 2 63 -62 132 -143 69 -81 136 -158 148 -172 12 -14 52 -60 88 -103
122 -144 147 -168 163 -162 13 5 15 46 16 298 0 161 3 312 7 336 6 44 31 85
47 76 4 -3 10 -1 14 4 3 6 13 7 21 4 12 -4 15 -1 12 13 -3 18 -14 19 -138 19
-115 0 -135 -2 -138 -16 -1 -9 3 -16 10 -17 73 -5 107 -34 109 -91 1 -20 2
-127 3 -237 l3 -201 -21 21 c-12 12 -50 55 -86 96 -36 41 -69 80 -75 86 -5 6
-35 39 -65 73 -30 35 -66 76 -80 91 -14 15 -45 51 -70 79 -106 124 -92 116
-191 117 -80 1 -89 -1 -89 -18z"/>
</g>
</svg>
