<svg enable-background="new 0 0 140 140" height="512" viewBox="0 0 140 140" width="512" xmlns="http://www.w3.org/2000/svg"><circle cx="70" cy="70" fill="#344d5b" r="64"/><path d="m134 69.9999313c0-1.9135742-.0997925-3.8029785-.2642822-5.6738281l-35.0790482-35.0791035h-24.2999878l-4.3599854-3.1398926-4.3499756 3.1398926h-24.5300254l.039978 17.6899433-8.8499756 6.3901367-.2000122.1499023v48.4200439l31.807312 31.8072433c2.0040855.189209 4.0324059.2956543 6.0859947.2956543 35.3463135.0000002 64.0000077-28.6538008 64.0000077-63.9999922z" opacity=".1"/><path d="m107.8970032 53.473053-38.4537049 35.7223968-37.3403015-35.7223968.2021103-.1431999 37.6948929-27.2268563 37.6948929 27.2268563z" fill="#dc8744"/><path d="m98.7736511 80.7027359-.1124115-51.4536266h-57.5472984l.1124077 51.4536266z" fill="#ebf0f3"/><path d="m107.8970032 53.473053v48.4239502h-75.7940064v-48.4239502l31.6987496 22.8897857 6.1982536 4.4802704 6.1982498-4.4802704z" fill="#fcd462"/><path d="m107.8970032 101.8970032h-75.7940064l31.6987496-25.5341645 6.1982536 4.4802704 6.1982498-4.4802704z" fill="#f7be56"/><path d="m47.788147 60.315571h44.42371v1.684311h-44.42371z" fill="#d5d6db"/><path d="m47.788147 53.473053h44.42371v1.684311h-44.42371z" fill="#d5d6db"/><path d="m73.877388 50.3117104c-1.3932571.7348137-2.8133545 1.0134659-4.5120926 1.0134659-4.157074 0-7.6804657-3.0414314-7.6804657-7.9085464 0-5.2221413 3.6245346-9.7342339 9.2532959-9.7342339 4.4109573 0 7.3770447 3.0930367 7.3770447 7.3264771 0 3.8020477-2.1301346 6.0322914-4.5120926 6.0322914-1.0155258 0-1.9526215-.6842461-1.8762512-2.2302437h-.1011429c-.887558 1.49543-2.0537643 2.2302437-3.5749969 2.2302437-1.4696274 0-2.7369766-1.190979-2.7369766-3.1931419 0-3.1436043 2.4830933-6.0085564 6.0064926-6.0085564 1.0898361 0 2.0537643.2280846 2.712204.5325356l-.8607178 4.5884628c-.3797989 1.9268265-.0763779 2.8133507.7595825 2.8391533 1.2941818.0247688 2.7390366-1.6987457 2.7390366-4.6390343 0-3.6761398-2.2065048-6.3119774-6.1344604-6.3119774-4.1323013 0-7.6061592 3.2695122-7.6061592 8.4163132 0 4.2334404 2.763813 6.8445091 6.5142555 6.8445091 1.4448624 0 2.7885818-.304451 3.8288803-.887558zm-1.3932571-10.9510117c-.2538834-.0763702-.6852798-.1775093-1.2673492-.1775093-2.2312775 0-4.0311661 2.1043358-4.0311661 4.5626602 0 1.1156387.5573044 1.9268265 1.6739731 1.9268265 1.469635 0 2.8133545-1.876255 3.0920029-3.4470253z" fill="#e56353"/></svg>