<?xml version="1.0" encoding="utf-8"?>
<!-- Generator: Adobe Illustrator 19.0.0, SVG Export Plug-In . SVG Version: 6.00 Build 0)  -->
<svg version="1.1" id="Layer_1" xmlns="http://www.w3.org/2000/svg" xmlns:xlink="http://www.w3.org/1999/xlink" x="0px" y="0px"
	 viewBox="0 0 1280 800" style="enable-background:new 0 0 1280 800;" xml:space="preserve">
<style type="text/css">
	.st0{fill:#FFFFFF;}
	.st1{fill:#F7931E;}
	.st2{fill:#EF0660;}
	.st3{fill:none;}
</style>
<g id="XMLID_34_">
	<path id="XMLID_1_" d="M356,302.9c0,145.3,105.2,266,243.6,290.2c16.6,2.9,33.6,4.4,51,4.4c162.7,0,294.6-131.9,294.6-294.6
		S813.3,8.4,650.6,8.4S356,140.2,356,302.9z"/>
	<circle id="XMLID_4_" class="st0" cx="650.6" cy="302.9" r="245.9"/>
	
		<rect id="XMLID_2_" x="473.1" y="85.2" transform="matrix(0.7071 0.7071 -0.7071 0.7071 341.2564 -272.4351)" class="st0" width="52.7" height="381.1"/>
	
		<rect id="XMLID_6_" x="473.1" y="85.2" transform="matrix(0.7071 0.7071 -0.7071 0.7071 341.2564 -272.4351)" class="st0" width="52.7" height="381.1"/>
	
		<rect id="XMLID_5_" x="517.3" y="186.4" transform="matrix(0.7071 0.7071 -0.7071 0.7071 456.7519 -310.6502)" class="st0" width="172.1" height="419.2"/>
	
		<rect id="XMLID_3_" x="532.2" y="142" transform="matrix(0.711 0.7032 -0.7032 0.711 460.8977 -269.9814)" class="st1" width="53.5" height="567.4"/>
	<path id="XMLID_8_" d="M421,391.4l231.8-231.8l28,37.2L442.9,434.8C442.9,434.8,424.9,419.8,421,391.4z"/>
	<polyline id="XMLID_11_" points="643.1,549.5 598.8,593.8 1000.1,192.5 977.1,143.9 581.1,539.9 925.8,195.2 	"/>
	<polyline id="XMLID_7_" points="561.6,559.5 977.1,143.9 581.9,539.2 596.9,549.9 637.6,550.8 643.9,548.8 940.8,251.9 
		941.4,251.4 	"/>
	<polygon id="XMLID_10_" points="886.8,234.3 581.9,539.2 603.4,559.5 652.9,512 734.4,441 778.3,406 843,330 886.8,282 906,242 	
		"/>
	
		<rect id="XMLID_9_" x="771.3" y="106.8" transform="matrix(-0.7071 -0.7071 0.7071 -0.7071 1037.3966 1282.3647)" class="st0" width="26" height="639.2"/>
	<polygon id="XMLID_13_" class="st0" points="499.5,584.9 517.9,603.3 969.8,151.2 951.4,132.9 	"/>
	<circle id="XMLID_15_" class="st2" cx="340.7" cy="176.4" r="35.8"/>
	<circle id="XMLID_14_" class="st2" cx="330.4" cy="246.1" r="20.7"/>
	<circle id="XMLID_12_" class="st2" cx="333.4" cy="298.8" r="14.3"/>
	<path id="XMLID_16_" class="st1" d="M1037,195.1L1037,195.1c-7,4-16,1.7-20-5.3c-4.9-40.7-22.3-71.6-53.1-91.8c-4-7-1.7-16,5.3-20
		v0c7-4,16-1.7,20,5.3c25,19.5,41.3,52.2,53.1,91.8C1046.3,182.1,1043.9,191.1,1037,195.1z"/>
</g>
<g id="XMLID_17_">
	<path id="XMLID_19_" d="M274.8,720L274.8,720c0.1,1.1,0.1,2.3,0.1,3.5c0,22.1-12,32.5-25.1,32.5c-16.8,0-29.1-15.8-29.1-36.8
		c0-21.6,12.5-32.3,25.6-32.3h0.1c0.9,0,1.7,0,2.6,0.1l-0.1-0.1v-4.3h-0.1c-0.7,0-1.5,0-2.2,0.1c-24,1.1-38.6,19.4-38.6,39.5
		c0,22,17.5,38.1,39.3,38.1c22.1,0,40.6-15.2,40.6-39.8L274.8,720z M281.8,699.7c4.5,7.1,5.6,14.6,5.9,18.3
		C287.3,711.1,285.2,704.9,281.8,699.7z M248.8,682.6c6.6,0.3,12,1.6,16.6,3.5C260.3,683.8,254.6,682.6,248.8,682.6z"/>
	<path id="XMLID_20_" d="M370.4,758.4v-3.3c7.3-1,7.9-2.2,5.8-5.8c-2.6-4-7.6-12-15.4-23.7c-5.9,8.7-10.7,16.2-14.2,22.4
		c-2.9,5-2.4,6,5.5,7.2v3.3h-27.4v-3.3c6.6-0.8,10.6-2.5,13.9-6.6c3.1-3.6,9.4-11.9,19.4-26.7c-6.1-9.4-11.5-17.8-15.8-24.3
		c-5.1-7.4-6.9-8.9-15.4-9.7v-3.4H357v3.4c-7,0.9-6.9,2-5.3,4.8c3.7,6,7.9,12.4,13.2,20.1c5-7.2,8.4-12.5,11.5-17.8
		c2.7-5,2.3-6.1-5.5-7.1v-3.4h27.4v3.4c-8.7,0.9-11.1,2.3-16.4,8.8c-2.7,3.3-6.8,9-14.4,19.9c6.5,9.9,13,19.6,18.9,28.1
		c5.3,7.9,8.2,9.8,16.4,10.6v3.3H370.4z"/>
	<path id="XMLID_22_" d="M438,758.4v-3.3c9.5-0.7,10.5-1.4,10.5-11.2v-45c0-9.9-1-10.6-10.5-11.2v-3.4h31.8v3.4
		c-9.4,0.6-10.4,1.3-10.4,11.2v45c0,9.8,1,10.5,10.4,11.2v3.3H438z"/>
	<path id="XMLID_24_" d="M591,687.8c-6.5,0.3-9.3,1.6-9.8,6.9c-0.4,3.7-0.7,8.8-0.7,19.4v45.6h-3.7l-51.2-59.4h-0.2l-0.1,27.8
		c0,10.5,0.5,15.9,0.8,19.2c0.5,5.9,3.2,7.3,11.2,7.9v3.3h-27.9v-3.3c6.7-0.5,9.7-1.9,10.2-7.6c0.5-3.6,0.9-9,0.9-19.5v-24.5
		c0-8.3-0.4-9-2.5-11.7c-2.4-2.8-4.9-3.7-10.4-4.1v-3.4h17.9l49.6,56.3h0.3V714c0-10.6-0.5-15.7-0.8-19c-0.5-5.4-3.3-6.9-11.6-7.2
		v-3.4H591V687.8z"/>
	<path id="XMLID_26_" class="st1" d="M687.1,740c-0.8,3.9-3.2,14.9-4.4,18.4h-53.8v-3.3c10-0.7,11-1.5,11-11.5V699
		c0-9.9-0.8-10.6-10.4-11.2v-3.4H661v3.4c-9.2,0.6-10.3,1.2-10.3,11.2v44.3c0,6.2,0.5,8.4,2.7,9.6c2.3,1.2,6.2,1.5,10.8,1.5
		c6.2,0,10.3-0.7,12.9-3.7c2.2-2.2,4.4-5.9,6.3-11.4L687.1,740z"/>
	<path id="XMLID_28_" d="M784.2,740c-0.8,4.3-3,14.8-4.1,18.5h-57.2v-3.3c10.5-0.8,11.5-1.9,11.5-11.2v-44.7
		c0-10.4-1-10.8-10.1-11.5v-3.4h52.8c0.2,3,0.6,10.5,1.1,16.9l-3.6,0.5c-1.1-4.8-2.3-7.4-3.8-9.9c-1.7-2.5-4.9-3.3-12.9-3.3h-8.7
		c-3.8,0-4.1,0.3-4.1,3.7v25.6H756c10.4,0,11.2-0.9,12.7-8.7h3.5v22.4h-3.5c-1.6-8.3-2.5-9-12.7-9h-10.7v21c0,5.4,0.6,7.9,2.8,9.4
		c2.3,1.3,6.6,1.3,11.9,1.3c8.5,0,12-0.8,14.6-3.7c2-2.4,4.2-6.4,5.9-11L784.2,740z"/>
	<path id="XMLID_30_" d="M868,758.4v-3.3c7.2-1,8.3-2,6.7-6.6c-1.6-4.5-3.7-10.2-6.2-16.8h-25c-1.9,5.2-3.5,9.7-5,14.2
		c-2.5,6.9-1.6,8.3,7.2,9.2v3.3H820v-3.3c7.6-1.2,9.2-1.9,13.3-12.1l24.5-59.5l4.1-1c7.5,20.2,15,40.4,22.7,60.5
		c3.7,10.1,5.4,11.3,12.9,12.1v3.3H868z M856.6,698.3h-0.2c-3.7,9.4-7.4,19.2-10.9,28.4h21.4L856.6,698.3z"/>
	<path id="XMLID_33_" d="M1004.9,759.4c-1.4,0-2.7-0.1-4.1-0.2c-9.4-0.5-14.3-3-19.6-10.4c-4-5.5-7.8-12.5-11.3-17.9
		c-2.1-3.3-4.1-4.7-10.1-4.7h-3.3v17.8c0,9.6,1.1,10.4,10.4,11.2v3.3h-31.6v-3.3c9.4-0.8,10.5-1.6,10.5-11.2v-45.2
		c0-9.7-1-10.4-10.1-11v-3.4h29.8c8.8,0,14.5,1,18.9,4c4.8,3,7.7,8,7.7,15c0,9.9-6.4,15.8-14.7,19.3c2,3.7,6.8,11.2,10.3,16.4
		c4.2,6,6.7,9.2,9.4,12c3,3.4,5.5,4.6,8.2,5.2L1004.9,759.4z M961.6,722.4c5.8,0,9.7-0.9,12.7-3.3c4.4-3.4,6.2-7.9,6.2-14
		c0-12.2-8-16.8-16.7-16.8c-3.5,0-5.4,0.5-6.2,1.1c-0.8,0.6-1.2,1.9-1.2,4.9v28.1H961.6z"/>
	<path id="XMLID_39_" d="M1121.2,687.8c-6.5,0.3-9.3,1.6-9.8,6.9c-0.4,3.7-0.7,8.8-0.7,19.4v45.6h-3.7l-51.2-59.4h-0.2l-0.1,27.8
		c0,10.5,0.5,15.9,0.8,19.2c0.5,5.9,3.2,7.3,11.2,7.9v3.3h-27.9v-3.3c6.7-0.5,9.7-1.9,10.2-7.6c0.5-3.6,0.9-9,0.9-19.5v-24.5
		c0-8.3-0.4-9-2.5-11.7c-2.4-2.8-4.9-3.7-10.4-4.1v-3.4h17.9l49.6,56.3h0.3V714c0-10.6-0.5-15.7-0.8-19c-0.5-5.4-3.3-6.9-11.6-7.2
		v-3.4h27.8V687.8z"/>
	<line id="XMLID_18_" class="st3" x1="274.9" y1="722.2" x2="287.8" y2="721.4"/>
	<path id="XMLID_47_" class="st1" d="M287.8,720.4l-13-0.5l0,0c-1.1-20.4-12.4-31.6-25.9-32.9l-0.1-0.1v-4.3
		c6.6,0.1,12,1.4,16.6,3.5c0.1,0,0.2,0.1,0.3,0.1c6.5,2.9,12.2,7.6,16.2,13.5c4.7,7.1,5.8,14.6,5.9,18.3c0,0.7,0.1,1.3,0.1,1.7
		C287.8,720.2,287.8,720.4,287.8,720.4z"/>
</g>
</svg>
