<?xml version="1.0"?>
<svg xmlns="http://www.w3.org/2000/svg" xmlns:xlink="http://www.w3.org/1999/xlink" version="1.1" id="Layer_1" x="0px" y="0px" viewBox="0 0 512 512" style="enable-background:new 0 0 512 512;" xml:space="preserve" width="512px" height="512px" class="hovered-paths"><g><path style="fill:#FFFFFF" d="M256,508C117.048,508,4,394.952,4,256S117.048,4,256,4s252,113.048,252,252S394.952,508,256,508z" data-original="#FFFFFF" class="" data-old_color="#FFFFFF"/><path style="fill:#BD545E" d="M256,8c136.744,0,248,111.256,248,248S392.744,504,256,504S8,392.744,8,256S119.256,8,256,8 M256,0  C114.616,0,0,114.616,0,256s114.616,256,256,256s256-114.616,256-256S397.384,0,256,0L256,0z" data-original="#999999" class="" data-old_color="#999999"/><g style="opacity:0.5;">
	<path style="fill:#FFFFFF" d="M256,483.832c-125.632,0-227.832-102.2-227.832-227.832S130.368,28.168,256,28.168   c125.624,0,227.832,102.2,227.832,227.832S381.624,483.832,256,483.832z" data-original="#FFFFFF" class="" data-old_color="#FFFFFF"/>
	<path style="fill:#BD545E" d="M256,30.168c124.528,0,225.832,101.312,225.832,225.832S380.528,481.832,256,481.832   S30.168,380.528,30.168,256S131.472,30.168,256,30.168 M256,26.168C129.064,26.168,26.168,129.064,26.168,256   S129.064,485.832,256,485.832S485.832,382.936,485.832,256S382.936,26.168,256,26.168L256,26.168z" data-original="#999999" class="" data-old_color="#999999"/>
</g><g>
	<path style="fill:#BD545E" d="M154.208,267.632l20.184,3.056c-3.936,10.936-9.848,19.288-17.728,25.072   c-7.88,5.776-17.12,8.664-27.696,8.664c-11.904,0-21.216-3.584-27.92-10.76c-6.712-7.168-10.064-17.576-10.064-31.216   c0-11.064,2.248-21.192,6.744-30.384c4.496-9.184,10.72-16.208,18.688-21.08s16.648-7.304,26.032-7.304   c10.536,0,19.064,2.824,25.568,8.464c6.504,5.648,10.336,13.336,11.496,23.08l-19.192,1.856c-1.064-5.664-3.112-9.776-6.144-12.32   c-3.032-2.544-7.072-3.816-12.12-3.816c-5.536,0-10.704,1.68-15.504,5.048c-4.808,3.36-8.648,8.624-11.52,15.768   c-2.872,7.152-4.312,14.288-4.312,21.416c0,7.8,1.864,13.816,5.608,18.064s8.4,6.376,13.976,6.376c5.176,0,9.928-1.68,14.24-5.048   C148.864,279.208,152.08,274.224,154.208,267.632z" data-original="#E21B1B" class="hovered-path active-path" data-old_color="#E21B1B"/>
	<path style="fill:#BD545E" d="M184.952,271.152l19.056-0.992c0.264,6.064,1.312,10.168,3.128,12.288   c2.92,3.456,8.32,5.168,16.2,5.168c6.552,0,11.288-1.168,14.208-3.512s4.384-5.176,4.384-8.496c0-2.872-1.192-5.312-3.584-7.304   c-1.68-1.464-6.296-3.832-13.84-7.112c-7.544-3.272-13.064-6.008-16.536-8.192c-3.48-2.192-6.2-5.04-8.2-8.536   c-1.984-3.496-2.984-7.592-2.984-12.288c0-8.192,2.968-14.984,8.896-20.384s14.52-8.104,25.768-8.104   c11.424,0,20.264,2.68,26.528,8.032c6.264,5.352,9.704,12.488,10.32,21.384l-19.184,0.864c-0.488-4.648-2.168-8.208-5.048-10.688   s-7.128-3.72-12.752-3.72c-5.528,0-9.488,0.976-11.848,2.92s-3.552,4.408-3.552,7.368c0,2.792,1.088,5.088,3.248,6.904   c2.168,1.856,6.976,4.408,14.416,7.64c11.2,4.824,18.328,8.744,21.384,11.752c4.56,4.424,6.84,10.12,6.84,17.072   c0,8.584-3.4,15.928-10.192,22.016c-6.8,6.088-16.256,9.128-28.392,9.128c-8.368,0-15.616-1.4-21.752-4.208   s-10.464-6.72-12.976-11.728C185.944,283.416,184.776,277.664,184.952,271.152z" data-original="#E21B1B" class="hovered-path active-path" data-old_color="#E21B1B"/>
	<path style="fill:#BD545E" d="M275.664,271.152l19.056-0.992c0.264,6.064,1.312,10.168,3.128,12.288   c2.92,3.456,8.32,5.168,16.2,5.168c6.552,0,11.288-1.168,14.208-3.512s4.384-5.176,4.384-8.496c0-2.872-1.192-5.312-3.584-7.304   c-1.68-1.464-6.296-3.832-13.84-7.112c-7.544-3.272-13.064-6.008-16.536-8.192c-3.48-2.192-6.2-5.04-8.2-8.536   c-1.984-3.496-2.984-7.592-2.984-12.288c0-8.192,2.968-14.984,8.896-20.384s14.52-8.104,25.768-8.104   c11.424,0,20.264,2.68,26.528,8.032s9.704,12.488,10.32,21.384l-19.184,0.864c-0.488-4.648-2.168-8.208-5.048-10.688   s-7.128-3.72-12.752-3.72c-5.528,0-9.488,0.976-11.848,2.92s-3.552,4.408-3.552,7.368c0,2.792,1.088,5.088,3.248,6.904   c2.168,1.856,6.976,4.408,14.416,7.64c11.2,4.824,18.328,8.744,21.384,11.752c4.56,4.424,6.84,10.12,6.84,17.072   c0,8.584-3.4,15.928-10.192,22.016s-16.256,9.128-28.392,9.128c-8.368,0-15.616-1.4-21.752-4.208s-10.464-6.72-12.976-11.728   C276.656,283.416,275.488,277.664,275.664,271.152z" data-original="#E21B1B" class="hovered-path active-path" data-old_color="#E21B1B"/>
	<path style="fill:#BD545E" d="M364.648,277.256l18.264-2.184c0.752,5.176,2.112,8.768,4.08,10.76s4.592,2.992,7.872,2.992   c4.336,0,7.928-1.472,10.792-4.392c2.848-2.92,4.28-6.656,4.28-11.216c0-3.984-1.152-7.144-3.456-9.464   c-2.304-2.328-5.4-3.488-9.296-3.488c-0.976,0-1.992,0.088-3.056,0.264l3.32-15.872c0.664,0.088,1.304,0.136,1.928,0.136   c5.088,0,8.96-1.296,11.616-3.88c2.656-2.592,3.984-6.104,3.984-10.528c0-3.144-0.896-5.624-2.688-7.44   c-1.8-1.816-4.152-2.72-7.072-2.72c-2.752,0-5.2,1.008-7.376,3.024c-2.168,2.008-3.896,5.456-5.176,10.328l-17.4-3.456   c2.208-7.168,5.288-12.68,9.232-16.536c5.968-5.752,13.32-8.632,22.048-8.632c8.936,0,15.736,2.496,20.384,7.472   c4.648,4.984,6.976,10.952,6.976,17.896c0,5.048-1.488,9.608-4.456,13.68s-7.04,7.064-12.216,8.968   c4.12,2.168,7.152,4.984,9.096,8.432c1.952,3.456,2.92,7.064,2.92,10.824c0,7.168-2.536,13.776-7.632,19.8   c-6.952,8.232-15.912,12.344-26.896,12.344c-8.232,0-15.016-2.352-20.352-7.072C369.04,292.568,365.8,285.896,364.648,277.256z" data-original="#E21B1B" class="hovered-path active-path" data-old_color="#E21B1B"/>
</g></g> </svg>
