<?xml version="1.0" encoding="utf-8"?>
<!-- Generator: Adobe Illustrator 24.0.1, SVG Export Plug-In . SVG Version: 6.00 Build 0)  -->
<svg version="1.0" xmlns="http://www.w3.org/2000/svg" xmlns:xlink="http://www.w3.org/1999/xlink" x="0px" y="0px"
	 viewBox="0 0 500 500" style="enable-background:new 0 0 500 500;" xml:space="preserve">
<style type="text/css">
	.st0{fill:#E27177;}
	.st1{fill:#FFFFFF;}
	.st2{fill:#75304D;}
	.st3{fill:#1F123D;}
	.st4{opacity:0.3;}
	.st5{fill:#0B2838;}
	.st6{opacity:0.6;fill:#0B2838;}
	.st7{fill:#FEE6C2;}
	.st8{fill:#F4B3A2;}
	.st9{opacity:0.6;fill:#F4B3A2;}
	.st10{fill:#AF4B6A;}
	.st11{fill:none;}
	.st12{fill:#1D262D;}
</style>
<g id="BACKGROUND">
	<rect class="st0" width="500" height="500"/>
</g>
<g id="OBJECTS">
	<path id="PANEL_1_" class="st1" d="M409.8,238.7c0,83.2-67.5,150.7-150.7,150.7c-83.2,0-150.7-67.5-150.7-150.7
		C108.3,155.5,175.8,88,259,88C342.3,88,409.8,155.5,409.8,238.7z"/>
	<g id="FLORALS">
		<path class="st1" d="M397.1,331.2c13.2-7.1,26.7-16.1,38.4-27.6c0.4-0.4,0.4-1,0-1.5c-0.4-0.4-2.5,2.2-2.9,2.6
			c-10.7,10.4-21.5,16.2-33.6,23c6.3-10.3,19.6-22.5,19.8-22.6c4.8-4.9,4.1-7.4-0.2-2.6c-0.7,0.7-17.7,16.3-23,27.1
			c-35.1,19.7-65,23-65.4,23.1c-0.6,0.1-0.9,0.6-0.9,1.2c0.1,0.5,0.5,0.9,1,0.9c0,0,0.1,0,0.1,0c0.3-0.1,19.4-3.3,43.4-12.8
			c7,0.2,24.5-2.4,49.6-12.8c0.5-0.2-0.4-1.8-4-0.2c-21.9,9.9-36.4,11.1-42,11.5c6.1-2.6,12.5-5.5,19-9
			C396.8,331.4,397,331.3,397.1,331.2z"/>
		<path class="st2" d="M359.1,340.4c-5-3-10.3-1.8-13-0.8c0.9-1.3,2-2.9,3.3-4.7c11.6,5,32-14.5,32-14.5c-2.3,1.2-13.4,3.9-19.2,5.2
			c-4,0.9-7.2,2.7-9.5,4.6c1.8-2.6,3.6-6.4,5.4-8.9c4-5.7,10.9-8.1,17.4-11.4c3.1-1.6,6.1-3.1,8.6-4.8c7.1,10,27.9-3,27.9-3
			c-1.6-0.1-11.7-0.8-17.6-0.7c-2.8,0.1-5.4,0.7-7.4,1.4c2.3-2.1,4.6-4.9,7-7.7c0.8-0.9,1.6-1.9,2.4-2.8
			c13.2,11.4,36.5-7.9,36.5-7.9c-1.6,1.4-15.3,1.3-24.1,2.5c-4.7,0.7-8.1,2-10.3,3c3-3.3,6.2-6.3,9.9-8
			c16.9-1.7,25.1-15.9,25.1-15.9c-17,3.6-21.7,6.7-25.2,14.6c-6.6,3.4-10.3,8.3-15.2,14.4c-2.7,3.4-7.4,7.6-11.2,9.1
			c0.8-1.2,2.2-3.5,3.7-5.7c1.7-2.7,6.9-11,9.1-14.4c2.1-1,7-3.8,10.7-9.1c4.9-7,7.8-19.8,7.8-19.8s-21,9.2-19.7,28l-0.1,0
			c0,0-6.5,10.8-8.8,14.7c-2.2,3.7-4.9,7.5-5.5,8c-1.2,0.7-2.5,1.3-3.8,2c3.2-5.7-1.1-11.5-1.1-11.5c-3.6,4.8-0.9,9.4-0.2,12.1
			c-3.2,1.7-8.5,4.5-11.4,6.8c1.6-2.8,2.9-6.2,2.6-9.4c-0.7-7,1.3-12.4,1.3-12.4s-16.8,8.3-8.6,26.1c-0.5,0.6-0.9,1.1-1.4,1.7
			c-4,5.7-8.6,12.4-11.7,16.7c0.1-1.9,0.2-4.3-0.1-7c0,0,0,0,0,0c1.3-3.6,3.4-11.5,0.8-19.8c-3.5-11.3-4.6-12.8-4.6-12.8
			s-8.3,13.9-4.1,22.6c4,8.1,7.1,10.2,7.1,10.2c0.6,5.2-1.5,9.6-1.7,10.5c-0.4,0.6-10.5,15.3-10.5,15.3l3-1.2
			c0,0,9.7-13.7,10.8-15.3C352.6,346.1,359.1,340.4,359.1,340.4z"/>
		<path class="st2" d="M324.1,352.2c-1.4,4.8-5.5,7.2-7.7,8.2c1.4,0.3,3,0.6,4.8,1c4.4-10,28.7-9.7,28.7-9.7
			c-2.2,0.6-10.7,5.4-15.1,8.1c-3,1.8-6.1,2.5-8.7,2.7c2.7,0.6,6,1.9,8.6,2.5c5.9,1.3,11.7-1.3,17.7-3.1c2.9-0.8,5.7-1.6,8.2-2
			c-1.4-10.5,19.3-14.5,19.3-14.5c-1,1.1-6.9,7.4-10.7,10.8c-1.8,1.6-3.8,2.8-5.5,3.5c2.7,0,5.8,0.3,9,0.7c1,0.1,2.1,0.3,3.2,0.4
			c1.7-15,27.7-16.5,27.7-16.5c-1.8,0.1-10.4,8.2-16.7,12.6c-3.4,2.4-6.3,3.6-8.3,4.2c3.9,0.3,7.6,0.3,11-0.8
			c11.6-8.9,25.2-4.8,25.2-4.8c-12.8,7.7-17.6,8.5-24.5,5.7c-6.2,1.7-11.4,0.8-18.1-0.1c-3.7-0.5-9.2-0.4-12.4,0.9
			c1.2,0.3,3.4,0.9,5.7,1.4c2.7,0.7,10.9,2.8,14.3,3.7c1.9-0.6,6.6-1.7,12.1-0.6c7.2,1.5,16.6,7.9,16.6,7.9s-18.7,6.6-28.9-6l0,0
			c0,0-10.5-3-14.2-4.1c-3.6-1.1-7.5-1.8-8.2-1.8c-1.2,0.3-2.4,0.6-3.6,1c5.4,1.7,6.1,7.9,6.1,7.9c-5.1-0.9-6.1-5.4-7.2-7.5
			c-3,0.9-8,2.1-11.2,2.5c2.6,0.8,5.5,2.2,7.2,4.4c3.7,4.8,8.1,7,8.1,7s-15.5,4.7-20.8-11.4c-0.6-0.1-1.3-0.2-1.9-0.3
			c-5.9-1.2-12.7-2.7-17.2-3.7c1.2,1.1,2.6,2.6,4,4.5c0,0,0,0,0,0c3,1.5,8.9,5.3,12.2,12c4.4,9.2,4.7,10.7,4.7,10.7
			s-13.5-3.8-15.9-11.8c-2.2-7.4-1.5-10.6-1.5-10.6c-2.7-3.7-6.6-5.2-7.3-5.6c-0.7-0.1-15.7-3.5-15.7-3.5l2.6-1
			c0,0,14.2,2.9,15.9,3.3C316.7,352.4,324.1,352.2,324.1,352.2z"/>
		<g>
			<path class="st1" d="M120.9,331.2c-13.2-7.1-26.6-16.1-38.4-27.6c-0.4-0.4-0.4-1,0-1.5c0.4-0.4,2.5,2.2,2.9,2.6
				c10.7,10.4,21.5,16.2,33.6,23c-6.3-10.3-19.6-22.5-19.8-22.6c-4.8-4.9-4.1-7.4,0.2-2.6c0.7,0.7,17.7,16.3,23,27.1
				c35.1,19.7,65,23,65.4,23.1c0.6,0.1,0.9,0.6,0.9,1.2c-0.1,0.5-0.5,0.9-1,0.9c0,0-0.1,0-0.1,0c-0.3-0.1-19.4-3.3-43.4-12.8
				c-7,0.2-24.5-2.4-49.6-12.8c-0.5-0.2,0.4-1.8,4-0.2c21.9,9.9,36.4,11.1,42,11.5c-6.1-2.6-12.5-5.5-19-9
				C121.2,331.4,121,331.3,120.9,331.2z"/>
			<path class="st2" d="M159,340.4c5-3,10.3-1.8,13-0.8c-0.9-1.3-2-2.9-3.3-4.7c-11.6,5-32-14.5-32-14.5c2.3,1.2,13.4,3.9,19.2,5.2
				c4,0.9,7.2,2.7,9.5,4.6c-1.8-2.6-3.6-6.4-5.4-8.9c-4-5.7-10.9-8.1-17.4-11.4c-3.1-1.6-6.1-3.1-8.6-4.8c-7.1,10-27.9-3-27.9-3
				c1.6-0.1,11.7-0.8,17.6-0.7c2.8,0.1,5.4,0.7,7.4,1.4c-2.3-2.1-4.6-4.9-7-7.7c-0.8-0.9-1.6-1.9-2.4-2.8
				c-13.2,11.4-36.5-7.9-36.5-7.9c1.6,1.4,15.3,1.3,24.1,2.5c4.7,0.7,8.1,2,10.3,3c-3-3.3-6.2-6.3-9.9-8
				c-16.9-1.7-25.1-15.9-25.1-15.9c17,3.6,21.7,6.7,25.2,14.6c6.6,3.4,10.3,8.3,15.2,14.4c2.7,3.4,7.4,7.6,11.2,9.1
				c-0.8-1.2-2.2-3.5-3.7-5.7c-1.7-2.7-6.9-11-9.1-14.4c-2.1-1-7-3.8-10.7-9.1c-4.9-7-7.8-19.8-7.8-19.8s21,9.2,19.7,28l0.1,0
				c0,0,6.5,10.8,8.8,14.7c2.2,3.7,4.9,7.5,5.5,8c1.2,0.7,2.5,1.3,3.8,2c-3.2-5.7,1.1-11.5,1.1-11.5c3.6,4.8,0.9,9.4,0.2,12.1
				c3.2,1.7,8.5,4.5,11.4,6.8c-1.6-2.8-2.9-6.2-2.6-9.4c0.7-7-1.3-12.4-1.3-12.4s16.8,8.3,8.6,26.1c0.5,0.6,0.9,1.1,1.4,1.7
				c4,5.7,8.6,12.4,11.7,16.7c-0.1-1.9-0.2-4.3,0.1-7c0,0,0,0,0,0c-1.3-3.6-3.4-11.5-0.8-19.8c3.6-11.3,4.6-12.8,4.6-12.8
				s8.3,13.9,4.1,22.6c-4,8.1-7.1,10.2-7.1,10.2c-0.6,5.2,1.5,9.6,1.7,10.5c0.4,0.6,10.5,15.3,10.5,15.3l-3-1.2
				c0,0-9.7-13.7-10.8-15.3C165.4,346.1,159,340.4,159,340.4z"/>
			<path class="st2" d="M193.9,352.2c1.4,4.8,5.5,7.2,7.7,8.2c-1.4,0.3-3,0.6-4.8,1c-4.4-10-28.7-9.7-28.7-9.7
				c2.2,0.6,10.7,5.4,15.1,8.1c3,1.8,6.1,2.5,8.7,2.7c-2.7,0.6-6,1.9-8.6,2.5c-5.9,1.3-11.7-1.3-17.7-3.1c-2.9-0.8-5.7-1.6-8.2-2
				c1.4-10.5-19.3-14.5-19.3-14.5c1,1.1,6.9,7.4,10.7,10.8c1.8,1.6,3.8,2.8,5.5,3.5c-2.7,0-5.8,0.3-9,0.7c-1,0.1-2.1,0.3-3.2,0.4
				c-1.7-15-27.7-16.5-27.7-16.5c1.8,0.1,10.4,8.2,16.7,12.6c3.4,2.4,6.3,3.6,8.3,4.2c-3.9,0.3-7.6,0.3-11-0.8
				c-11.6-8.9-25.2-4.8-25.2-4.8c12.8,7.7,17.6,8.5,24.5,5.7c6.2,1.7,11.4,0.8,18.1-0.1c3.7-0.5,9.2-0.4,12.4,0.9
				c-1.2,0.3-3.4,0.9-5.7,1.4c-2.7,0.7-10.9,2.8-14.3,3.7c-1.9-0.6-6.6-1.7-12.1-0.6c-7.2,1.5-16.6,7.9-16.6,7.9s18.7,6.6,28.9-6
				l0,0c0,0,10.5-3,14.2-4.1c3.6-1.1,7.5-1.8,8.2-1.8c1.2,0.3,2.4,0.6,3.6,1c-5.4,1.7-6.1,7.9-6.1,7.9c5.1-0.9,6.1-5.4,7.2-7.5
				c3,0.9,8,2.1,11.2,2.5c-2.6,0.8-5.5,2.2-7.2,4.4c-3.7,4.8-8.1,7-8.1,7s15.5,4.7,20.8-11.4c0.6-0.1,1.3-0.2,1.9-0.3
				c5.9-1.2,12.7-2.7,17.2-3.7c-1.2,1.1-2.6,2.6-4,4.5c0,0,0,0,0,0c-3,1.5-8.9,5.3-12.2,12c-4.4,9.2-4.7,10.7-4.7,10.7
				s13.5-3.8,15.9-11.8c2.2-7.4,1.5-10.6,1.5-10.6c2.7-3.7,6.6-5.2,7.3-5.6c0.7-0.1,15.7-3.5,15.7-3.5l-2.6-1c0,0-14.2,2.9-15.9,3.3
				C201.3,352.4,193.9,352.2,193.9,352.2z"/>
		</g>
		<path class="st2" d="M394.1,252.8c0,0,6.7-7.4,2.6-17.1C396.7,235.7,388.6,240.7,394.1,252.8z"/>
		<path class="st3" d="M382.6,286.2c0,0,2.7-9.3-3.9-13.1C378.7,273.1,372.2,277.4,382.6,286.2z"/>
		<path class="st3" d="M426.1,251.5c0,0,7.3-3.7,7.3-12.8C433.4,238.7,426.1,240.5,426.1,251.5z"/>
		<path class="st3" d="M422.5,341.1c0,0,8.1-6.1,13.3,0.8C435.8,341.8,426.1,346.8,422.5,341.1z"/>
		<path class="st3" d="M135.5,282.7c0,0,3.7-7,0-12C135.4,270.7,129.4,276,135.5,282.7z"/>
		<path class="st2" d="M127.6,246.8c0,0,7.2-5.1,5.1-12.9C132.8,233.9,124.5,236.2,127.6,246.8z"/>
		<path class="st3" d="M97.7,343.9c0,0-8.8-5.8-15.5,0.3C82.2,344.1,87.4,348.8,97.7,343.9z"/>
		<path class="st2" d="M74.5,273.1c0,0,1.5-9.3-6.7-12C67.8,261.1,66.3,269.6,74.5,273.1z"/>
		<path class="st3" d="M163.7,390.3c0,0-7.6-1.2-11,7C152.7,397.3,160.9,399.2,163.7,390.3z"/>
	</g>
	<g id="WOMAN">
		<g class="st4">
			<path class="st5" d="M301.4,156.1c0,0-21.3-22.7-50.2-13.1c-28.9,9.6-62.6,74.9-56.4,106.5c6.2,31.6,36.7,53.6,85.2,44.7
				c48.6-8.9,56.5-49.4,58.5-53.5C340.7,236.6,341.3,182.2,301.4,156.1z"/>
			<path class="st5" d="M264.8,291c-6.1-6.9-17.8-2.9-26-7.7c-8.2-4.8-21.7-12.2-17.9-2.8c-5.1-6-6.6-7.5-10.1-11.9
				c-2.3-3-7.3,0.7-5.1,4.8c12.1,15.4,33,24.7,61.3,22.6C266.6,294.7,265.6,292,264.8,291z"/>
			<path class="st6" d="M321.7,248.2c1,5.6-3.8,11.1-10.9,12.4c-7,1.3-13.6-2.2-14.6-7.8c-1-5.6,3.8-11.1,10.9-12.4
				C314.1,239.2,320.7,242.7,321.7,248.2z"/>
			<path class="st6" d="M246.2,261.3c1,5.6-3.8,11.1-10.9,12.4c-7,1.3-13.6-2.2-14.6-7.8c-1-5.6,3.8-11.1,10.9-12.4
				C238.7,252.3,245.2,255.8,246.2,261.3z"/>
			<path class="st5" d="M261.8,221.1c-0.9,2,0.3,8.7,1,13.9c0.8,5.1-2.3,20.8,4,20.1c6.3-0.8,6-5.8,1.9-20.8
				C264.6,219.3,262.5,219.6,261.8,221.1z"/>
			<path class="st5" d="M254.7,273.9c0,0,8.1-15.2,17-6.2c1.9-7,9.7-7.4,17.8-2C289.5,265.7,279.8,274.6,254.7,273.9z"/>
			<path class="st5" d="M254.7,274.3c0,0,3.4,11.6,21.5,7.1c14.4-3.6,13.3-14.9,13.3-14.9S276,274.6,254.7,274.3z"/>
			<path class="st5" d="M296.1,259c0,0,0,0.1,0,0.2c0,0.1-0.1,0.4-0.2,0.6c-0.2,0.5-0.5,1.1-0.9,1.8c-0.2,0.4-0.5,0.7-0.8,1.1
				c-0.3,0.4-0.6,0.8-1,1.2c-0.4,0.4-0.8,0.8-1.2,1.2c-0.5,0.4-0.9,0.8-1.5,1.2c-0.3,0.2-0.5,0.4-0.8,0.6c-0.3,0.2-0.6,0.4-0.9,0.6
				c-0.3,0.2-0.6,0.4-0.9,0.6c-0.3,0.2-0.6,0.4-1,0.5c-0.3,0.2-0.7,0.4-1,0.5c-0.3,0.2-0.7,0.3-1.1,0.5c-0.7,0.3-1.4,0.7-2.2,0.9
				c-1.5,0.6-3.1,1.1-4.7,1.6c-0.8,0.2-1.6,0.4-2.5,0.6l-1.3,0.3l-1.2,0.3c-1.6,0.4-3.3,0.7-5,1c-1.7,0.3-3.3,0.5-4.9,0.6
				c-0.8,0.1-1.6,0.1-2.4,0.2c-0.8,0.1-1.5,0.1-2.3,0.1c-0.7,0-1.5,0-2.2-0.1c-0.7,0-1.4-0.1-2-0.2c-1.3-0.2-2.5-0.5-3.6-0.8
				c-1.1-0.4-2-0.8-2.7-1.4c-0.4-0.2-0.7-0.6-0.9-0.9c-0.3-0.3-0.5-0.6-0.6-0.9c-0.3-0.6-0.4-0.9-0.4-0.9c-0.2-0.8,0.3-1.6,1.1-1.8
				c0.7-0.2,1.3,0.1,1.7,0.7l0.3,0.5c0,0,0,0,0,0.2c0.1,0.1,0.1,0.2,0.2,0.4c0.1,0.1,0.2,0.3,0.5,0.5c0.4,0.4,1.1,0.8,1.9,1.2
				c0.8,0.4,1.9,0.7,3,1c0.6,0.1,1.2,0.3,1.9,0.3c0.6,0.1,1.3,0.2,2,0.2c0.7,0,1.4,0.1,2.2,0.1c0.7,0,1.5,0,2.3-0.1
				c1.5-0.1,3.2-0.3,4.8-0.5c1.6-0.3,3.2-0.5,4.9-0.9l1.2-0.3c0.4-0.1,0.8-0.2,1.2-0.3c0.8-0.2,1.6-0.4,2.4-0.6
				c0.8-0.3,1.5-0.5,2.3-0.8c0.8-0.3,1.5-0.6,2.2-0.9c0.7-0.3,1.4-0.6,2-1c0.3-0.2,0.7-0.3,1-0.5c0.3-0.2,0.6-0.4,0.9-0.6
				c0.3-0.2,0.6-0.4,0.9-0.5c0.3-0.2,0.5-0.4,0.8-0.6c0.3-0.2,0.5-0.4,0.8-0.6c0.2-0.2,0.5-0.4,0.7-0.6c0.9-0.8,1.6-1.6,2.2-2.4
				c0.3-0.4,0.5-0.8,0.7-1.1c0.2-0.4,0.4-0.7,0.5-1c0.3-0.6,0.4-1.1,0.5-1.4c0-0.2,0-0.2,0-0.3c0-0.1,0-0.1,0-0.1l0-0.1
				c0.1-0.9,0.9-1.5,1.7-1.3c0.9,0.1,1.5,0.9,1.3,1.7C296.1,258.8,296.1,258.9,296.1,259z"/>
			<path class="st5" d="M306.9,208c0,0-8.2-7.9-21.3-3.8c-13.1,4.1-14.1,13.1-6.9,12.4C285.9,215.9,295.6,208.3,306.9,208z"/>
			<path class="st5" d="M280.6,238.1c0,0,2-6.4,8.9-10.2c7.7-4.3,16.5-3.3,25.8,1.2c3-4.1,4.3-7.9,4.3-7.9s0.4,17-3.7,13.3
				c-4.9-4.4-22.3-6.8-28.5,3.3C284.4,242.7,279.6,240.5,280.6,238.1z"/>
			<path class="st5" d="M316.1,237.6c-1.3-2.3-4.7-2.2-8.4-2.6C304,234.7,318.2,241.2,316.1,237.6z"/>
			<path class="st5" d="M278.3,233.4c-1.5,0.4,7-10,7-5.9C285.3,231.1,280.5,232.9,278.3,233.4z"/>
			<path class="st5" d="M216.6,226.2c0,0,5.1-10.2,18.8-10.7c13.7-0.5,17.6,7.6,10.6,9.4C239,226.7,227.4,222.8,216.6,226.2z"/>
			<path class="st5" d="M251.4,245.8c0,0-4-5.3-11.8-6.6c-8.7-1.5-16.7,2.4-23.9,9.7c-4.2-2.9-6.7-6-6.7-6s5.3,16.2,7.9,11.3
				c3.2-5.8,18.7-13.9,28-6.4C249.5,251.4,253.2,247.8,251.4,245.8z"/>
			<path class="st5" d="M217.8,257.2c0.5-2.6,3.7-3.7,7.1-5.2C228.2,250.5,217,261.3,217.8,257.2z"/>
			<path class="st5" d="M252.1,240.7c1.5-0.1-9.9-7.1-8.5-3.2C244.7,240.8,249.9,240.9,252.1,240.7z"/>
			<path class="st5" d="M153,286c0,0,1,17.7,13.4,19.3c12.4,1.6,14.5,4,17.2,6.8c2.7,2.8-1.5-7.8-6.8-11.3
				C171.5,297.4,153,286,153,286z"/>
			<path class="st5" d="M174.4,192.2c0,0-6.8,27.8-16,41.2c-12.6,18.4-21.1,25.7-4.6,38.4C153.8,271.9,182.8,213.5,174.4,192.2z"/>
			<path class="st5" d="M328.1,157.5c0,0,13.9,22.4,25.2,29.1c11.3,6.7,27.8,22.7,22.7,39.7C370.8,243.2,330.2,182.5,328.1,157.5z"
				/>
			<path class="st5" d="M382.6,235c0,0,4.6,22.1-5.7,28.7c-10.3,6.5-12,11.6-10.3,14.1c1.7,2.5-3.1-14.1-3.1-14.1L382.6,235z"/>
			<path class="st5" d="M335.1,248.2c0,0-6.3,14.7-13.9,17.7c-7.6,3-11.3,9.7-4.9,16.4C322.7,289.2,343.2,255.7,335.1,248.2z"/>
			<path class="st5" d="M366.7,270.2c2.1-4.1,19.9-24.7,15.1-39.9c-4.8-15.1-32.3-33.7-42.6-54.3c-10.3-20.6-32.4-55.1-81.2-52.6
				c-48.8,2.5-78.2,29.8-83.1,65c-5.5,39.2-3.9,40.2-15.1,57.1c-6.9,10.3-17.9,41.9,4.8,52.9c22.7,11,21.3,17.2,17.2,20.6
				c0,0,11-0.1,13.7-11.4c0,0,4.8,8.6,4.1,11.4c0,0,6.2-4.9,5.5-11.4c0,0,6.2,8.6,4.8,11.4c0,0,10.3-6.2,8.2-18.6
				c0,0-9.3-21.3-6.3-45.6c23.5-16.9,29.3-56.6,31.1-67.2c2.1-12.4,1.4-33.7,10.3-37.1c6.6-2.5,9.4,3.5,10.4,6.9
				c0.3,1.3,0.5,2.1,0.5,2.1s3.5-15.8,10.4,0c6.9,15.8,17.8,29.1,50.2,48.1c11.7,6.9,4.1,46.1-11,45.4c0,0,7.6,6.2,21.3-4.8
				c0,0-3.4,18.7-15.8,29.6c-12.4,10.9-3.4,19.2,0,20.6c0,0-0.7-6.1,3.4-9.2c4.1-3.1,12.4-6.5,12.4-11.3c0,0,0.7,9,7.6,11.3
				c0,0,1.4-10.6,3.4-11.3c0,0,0.7,4.8,6.9,6.8c0,0,0-4.7,2.8-6.8c0,0,8.2,7.6,16.5,0C372.2,277.8,364.6,274.3,366.7,270.2z"/>
			<path class="st5" d="M191.4,262l5.2-7c0,0-1.4,7.7,0,8.7c0,0,15.7,0.5,21.7-23c10.6-41.3,10.1-69.8,10.1-69.8s-7.4,87-29.4,89.4
				l0-1.4c0-19.4,18.3-95.2,18.3-95.2c-13.5,33.4-18.6,72.1-20.1,86l-5,8.5c0,0-5.7-20.7-0.7-45.3c5-24.6,15.5-44.7,15.5-44.7
				s-22.1,34.5-20.7,62.8C187.7,259.2,191.4,262,191.4,262z"/>
			<path class="st5" d="M180.1,255.1c1.7-17.2,3.5-28.3,2.4-43.2c-1-14.9,3.7-27.7,3.7-27.7s-7.5,13.8-6.8,30.6
				c0.7,16.8-1.7,27.5-2.1,32.1c-0.3,4.6-3.8,17.5,11.7,30.8c11.9,10.3,26.2,23.6,27.3,34.2c0.9-1.7,1.6-3.6,2-5.9
				c-1.4-2.8-4.1-7-9.5-13.4C196.6,278.1,178.4,272.3,180.1,255.1z"/>
			<path class="st5" d="M196.6,309.5C196.6,309.5,196.6,309.6,196.6,309.5C196.6,309.6,196.6,309.6,196.6,309.5
				C196.6,309.6,196.6,309.5,196.6,309.5z"/>
			<path class="st5" d="M170.5,243.4c3.1-15.1,2.2-38.4,2.2-38.4c-1.3,10-2.1,16.3-3.4,21.3c0.1,11.8-3.8,30.7-5.4,41.7
				c-2.1,14.3,20.3,29.7,25.1,34.9c2.3,2.5,4.2,5.5,5.4,7.9c0.4-0.9,0.8-1.9,1.1-3c-3.2-5-11.9-15.3-20.6-25.3
				C165,270.9,167.4,258.5,170.5,243.4z"/>
			<path class="st5" d="M195.5,291.2c-8.6-7.2-13-10.7-13-10.7s22.6,24.6,22.1,31.5l0.5-4.4C205.2,307.6,204.1,298.4,195.5,291.2z"
				/>
			<path class="st5" d="M285.3,151.3c0,0,6.2,28.5,21.8,38.8c15.6,10.3,34.2,33,28,56.9l-1.8,8c0,0,6.6-5.4,5.6-25
				c-1-19.6-11.4-26.1-22.6-36.4C305.2,183.3,288.4,163.7,285.3,151.3z"/>
			<path class="st5" d="M365.7,224.3c-1.3-7.9-26.7-30.9-33.7-41.5c-5.7-9.4-10.6-17.9-12.3-23c0,0,9.6,28.2,15.1,35.7
				c5.5,7.6,19.9,21,14.4,40.1c-5.1,17.7-14.5,36.9-13.9,43.5c0.1,0.4,0.2,0.8,0.3,1.3c2.1,4.5,2.3,5,2.3,5c0,0,0,0,0,0
				c0,0-2.4-8.5,4.1-21.9c6.5-13.4,18.3-32,8.4-50c-2.1-3.9-4.6-8.1-7.2-12.4c0.7,0.6,1.4,1.3,2.2,1.9c8.2,6.5,20.8,21.6,17.5,40.6
				c-2.7,15.6-6,28-8.1,34.9c0.3-0.3,0.5-0.6,0.9-0.8c0,0,0.4,0.4,1.1,0.9C359.1,273.5,369.5,247.7,365.7,224.3z"/>
			<path class="st5" d="M346.1,277.8c-0.3-3.4-2.4-1.7,2.8-13.4c5.2-11.7,8.9-18.4,8.9-23.7c0,0,0.7,8-3.8,18.5
				c-4.5,10.6-7.6,19.6-5.1,23.1C348.9,282.4,346.4,281.5,346.1,277.8z"/>
			<path class="st5" d="M366.5,272.6c0,0-1.1-2.2,1.5-9c2.6-6.8,10.1-20.7,2.6-35.1c0,0,8,12.8,3.1,28.9
				C369.3,271.5,365.7,271.1,366.5,272.6z"/>
			<path class="st5" d="M178,301c-8.2-4.6-19.6-11.9-19.8-25.3c0,0-5,15.9,16.1,29.4l-0.3-1.6c7.7,4.8,10.2,8.4,10.3,11.2l0,0
				C184.2,314.6,186.3,305.6,178,301z"/>
			<path class="st5" d="M211.4,269.3c-0.6-0.7-1.2-1.3-1.7-1.4c-2-0.4-2.8,3-2.8,3s-1.6-2.2-3.4-3.4c-1.8-1.2-2.7,1.1-2.7,1.1
				s3.6,5.9,3.7,5.8c0.1-0.1,7,1.3,7,1.3l0.3-0.8C211.7,273.1,211.5,271.2,211.4,269.3z"/>
			<path class="st5" d="M257.4,150.1c0,0-6.2-0.8-7.2,7.4c-1,8.2,5.5,83.3-38.8,106.2c0,0-3.1-10-1.3-13.1
				c1.8-3.1,21.7-96.2,35.7-102C259.8,142.7,257.4,150.1,257.4,150.1z"/>
			<path class="st5" d="M280.5,170.5c0,0,6.3,17,22.8,29.9c16.5,12.9,28.4,23.1,24.4,38.5c-4,15.4-10.6,23.1-16,23.1
				c0,0,16.4,3.7,28-10.4c11.5-14,7.8-40-16.9-55.3C298,181,280.5,170.5,280.5,170.5z"/>
			<path class="st5" d="M292,291.2c0,0-2.4,10,2.8,13.6c5.9,4.2,11.3,2.8,11.3,2.8s-15.9,56.8-34,60.5
				c-18.1,3.8-23.6-32.6-24.3-39.9c-0.7-7.2,9.7-31,9.7-31S278.4,295.5,292,291.2z"/>
			<path class="st5" d="M275.9,362.2c0,0-4-5.1-1.1-15.4c0,0,1.9,12.8,4.2,13.7L275.9,362.2z"/>
			<path class="st5" d="M292,291.2c0,0-0.6,4.9-0.3,6.7c0,0-13.4,6.2-29.4,5.5v-7.1C262.4,296.3,278.2,294.8,292,291.2z"/>
			<path class="st5" d="M224.9,377.4c0,0-4.5,21.2,22.9,23.7c27.3,2.5,37.5,0,37.5,0l44.3-23.7l-23.7-62.8c0,0-18.4,56.5-33.7,51.3
				c-15.4-5.2-22.3-36.1-22.3-36.1S224.3,368.2,224.9,377.4z"/>
			<path class="st5" d="M254.8,397.8l7.6-3.8c0,0,3.8,1.1,9.7-1.2c5.9-2.3,27-4.7,36.3-6.8c9.3-2.1,18.1-6.7,18.1-6.7s3.4-7.5,4.9-9
				c1.5-1.5,8.4-2.6,14,1c0,0-5.4,1.1-15,0.3c0,0-4.5,4.4-15.3,6.7c-10.8,2.2-63.6,12-73.6,19.5H254.8z"/>
			<path class="st5" d="M255.7,331.4c0,0-20.6,48.3-29.3,57.7l-1.5-4.9l29.8-56L255.7,331.4z"/>
			<path class="st5" d="M365.8,392.8c4.9-17.8-19.6-64.1-30.2-77.5c-11.3-14.3-29.5-7.7-29.5-7.7s-0.8,6.2,0.2,12.9
				c-2.3,2.5,11.2,27.4,11.5,31.9c0.3,4.5,7.1,24.3,7.1,24.3s-5.4,3.4-11.6,4.8c-12.2,2.7-51,11.3-51,11.3
				c9.7,1.8,13.5,17.6,13.5,17.6c10.3-1.4,56.8,1.7,71.5-1.4c8.2-1.7,13-6.6,15.6-10.5c0.1,0.1,0.2,0.2,0.2,0.2
				c0.7-1.2,1.2-2.4,1.8-3.7C365.6,393.7,365.8,392.8,365.8,392.8L365.8,392.8z"/>
			<path class="st5" d="M254.8,395.4c0.5-0.6-22.3,4.2-24.8,5.4c-2.6,1.2-11,5.2-14.9,5.7c-3.9,0.5-4.1,6.8,7.3,5.9
				C233.8,411.5,252.8,397.9,254.8,395.4z"/>
			<path class="st5" d="M262.4,392.8c0,0-29,9.6-33,11.9c-4,2.3-9,7-12.5,9.9c-5.3,4.4-11.3,8-9.3,10.4c2,2.4,7.4-0.8,7.4-0.8
				s-8.6,6.1-4.2,7.1c4.5,1,14-5,14-5s-5,3.7-2.2,5.2c3.1,1.6,8.2-1.6,14.8-4.9c-6.3,3.1-3.9,6,0.7,5.2c6.8-1.2,14.6-9.7,19.3-12.8
				c4.7-3.1,12.1-2.1,18.4-8.6C275.9,410.4,272.4,394.5,262.4,392.8z"/>
			<path class="st5" d="M326.5,376.5c0,0,4.3-9.7-3.4-22c0,0,1.8-4.8,3.4-10c0,0-4.4,5.8-6.9,10.2c0,0,10,14.1,0.2,23.9
				C312.9,378.8,326.5,376.5,326.5,376.5z"/>
			<path class="st5" d="M317.7,380.3c0,0,10.9-4.6,20.2-1.6c0,0-3-3.5-12.8-1.9l-9.8,3.6H317.7z"/>
			<path class="st5" d="M301.2,307.6c0,0-1.7,35-25.3,54.6c0,0-23.8-21.9-24-56.2h-8.5c0,0,2.4,51.4,32.5,69
				c0,0,28.1-19.3,32.5-68.1L301.2,307.6z"/>
			<path class="st5" d="M215.6,294.6c0,0-12.5-9.6-15.3-18.9c-2.7-9.3,2.7-9.2,4.8-1.3C207.3,282.4,215.6,294.6,215.6,294.6z"/>
			<path class="st5" d="M249.5,307.6c0,0-18.2-6.6-29.5,7.7c-11.3,14.3-44.5,52.5-27.6,83.4c0,0,49.1-60.9,54-69.4
				C251.2,320.7,249.5,307.6,249.5,307.6z"/>
			<path class="st5" d="M237.3,306.1c0,0-27.8,43.1-36.5,50.6c-7.1,6.1-12.5,18-9.4,28.3c3.1,10.3,41.6-56.7,41.6-56.7l6.5-15.8
				L237.3,306.1z"/>
			<path class="st5" d="M260.1,319c0,0,10.2-18.6,4.1-25.4c-6.1-6.9-18.5-2.8-26.8-7.6c-8.2-4.8-21.7-13-17.9-3.6
				c-5.1-6-6.5-6.1-9.9-10.5c-3.4-4.4-8.1,0.4-2.3,10.5c5.8,10.1,12,18.4,21.1,20.8c9.1,2.4,9.1,2.4,9.1,2.4l-2.7,6.9"/>
			<path class="st5" d="M260.1,319c0,0-10.7-11.4-25.4-6.5c0,0-24.7,40.5-35.1,49.3c-10.3,8.8-13.2,29.9-5.8,39.2
				c7.4,9.3,29.2-7.2,37.7-23.2C239.9,361.8,260.1,319,260.1,319z"/>
			<path class="st5" d="M237.5,305.6c0,0,5.3-0.9,7.6-2.2c0,0-4.4,4.4-8.9,5.6L237.5,305.6z"/>
		</g>
		<g>
			<g>
				<g>
					<g>
						<path class="st7" d="M296.4,151.1c0,0-21.3-22.7-50.2-13.1c-28.9,9.6-62.6,74.9-56.4,106.5c6.2,31.6,36.7,53.6,85.2,44.7
							c48.6-8.9,56.5-49.4,58.5-53.5C335.7,231.6,336.3,177.2,296.4,151.1z"/>
					</g>
					<g>
						<path class="st8" d="M259.8,286c-6.1-6.9-17.8-2.9-26-7.7c-8.2-4.8-21.7-12.2-17.9-2.8c-5.1-6-6.6-7.5-10.1-11.9
							c-2.3-3-7.3,0.7-5.1,4.8c12.1,15.4,33,24.7,61.3,22.6C261.6,289.7,260.6,287,259.8,286z"/>
					</g>
					<path class="st9" d="M316.7,243.2c1,5.6-3.8,11.1-10.9,12.4c-7,1.3-13.6-2.2-14.6-7.8c-1-5.6,3.8-11.1,10.9-12.4
						C309.1,234.2,315.7,237.7,316.7,243.2z"/>
					<path class="st9" d="M241.2,256.3c1,5.6-3.8,11.1-10.9,12.4c-7,1.3-13.6-2.2-14.6-7.8c-1-5.6,3.8-11.1,10.9-12.4
						C233.7,247.3,240.2,250.8,241.2,256.3z"/>
					<g>
						<path class="st8" d="M256.8,216.1c-0.9,2,0.3,8.7,1,13.9c0.8,5.1-2.3,20.8,4,20.1c6.3-0.8,6-5.8,1.9-20.8
							C259.6,214.3,257.5,214.6,256.8,216.1z"/>
					</g>
					<g>
						<g>
							<path class="st0" d="M249.7,268.9c0,0,8.1-15.2,17-6.2c1.9-7,9.7-7.4,17.8-2C284.5,260.7,274.8,269.6,249.7,268.9z"/>
						</g>
						<g>
							<path class="st0" d="M249.7,269.3c0,0,3.4,11.6,21.5,7.1c14.4-3.6,13.3-14.9,13.3-14.9S271,269.6,249.7,269.3z"/>
						</g>
						<path class="st3" d="M291.1,254c0,0,0,0.1,0,0.2c0,0.1-0.1,0.4-0.2,0.6c-0.2,0.5-0.5,1.1-0.9,1.8c-0.2,0.4-0.5,0.7-0.8,1.1
							c-0.3,0.4-0.6,0.8-1,1.2c-0.4,0.4-0.8,0.8-1.2,1.2c-0.5,0.4-0.9,0.8-1.5,1.2c-0.3,0.2-0.5,0.4-0.8,0.6
							c-0.3,0.2-0.6,0.4-0.9,0.6c-0.3,0.2-0.6,0.4-0.9,0.6c-0.3,0.2-0.6,0.4-1,0.5c-0.3,0.2-0.7,0.4-1,0.5c-0.3,0.2-0.7,0.3-1.1,0.5
							c-0.7,0.3-1.4,0.7-2.2,0.9c-1.5,0.6-3.1,1.1-4.7,1.6c-0.8,0.2-1.6,0.4-2.5,0.6l-1.3,0.3l-1.2,0.3c-1.6,0.4-3.3,0.7-5,1
							c-1.7,0.3-3.3,0.5-4.9,0.6c-0.8,0.1-1.6,0.1-2.4,0.2c-0.8,0.1-1.5,0.1-2.3,0.1c-0.7,0-1.5,0-2.2-0.1c-0.7,0-1.4-0.1-2-0.2
							c-1.3-0.2-2.5-0.5-3.6-0.8c-1.1-0.4-2-0.8-2.7-1.4c-0.4-0.2-0.7-0.6-0.9-0.9c-0.3-0.3-0.5-0.6-0.6-0.9
							c-0.3-0.6-0.4-0.9-0.4-0.9c-0.2-0.8,0.3-1.6,1.1-1.8c0.7-0.2,1.3,0.1,1.7,0.7l0.3,0.5c0,0,0,0,0,0.2c0.1,0.1,0.1,0.2,0.2,0.4
							c0.1,0.1,0.2,0.3,0.5,0.5c0.4,0.4,1.1,0.8,1.9,1.2c0.8,0.4,1.9,0.7,3,1c0.6,0.1,1.2,0.3,1.9,0.3c0.6,0.1,1.3,0.2,2,0.2
							c0.7,0,1.4,0.1,2.2,0.1c0.7,0,1.5,0,2.3-0.1c1.5-0.1,3.2-0.3,4.8-0.5c1.6-0.3,3.2-0.5,4.9-0.9l1.2-0.3
							c0.4-0.1,0.8-0.2,1.2-0.3c0.8-0.2,1.6-0.4,2.4-0.6c0.8-0.3,1.5-0.5,2.3-0.8c0.8-0.3,1.5-0.6,2.2-0.9c0.7-0.3,1.4-0.6,2-1
							c0.3-0.2,0.7-0.3,1-0.5c0.3-0.2,0.6-0.4,0.9-0.6c0.3-0.2,0.6-0.4,0.9-0.5c0.3-0.2,0.5-0.4,0.8-0.6c0.3-0.2,0.5-0.4,0.8-0.6
							c0.2-0.2,0.5-0.4,0.7-0.6c0.9-0.8,1.6-1.6,2.2-2.4c0.3-0.4,0.5-0.8,0.7-1.1c0.2-0.4,0.4-0.7,0.5-1c0.3-0.6,0.4-1.1,0.5-1.4
							c0-0.2,0-0.2,0-0.3c0-0.1,0-0.1,0-0.1l0-0.1c0.1-0.9,0.9-1.5,1.7-1.3c0.9,0.1,1.5,0.9,1.3,1.7
							C291.1,253.8,291.1,253.9,291.1,254z"/>
					</g>
					<g>
						<path class="st10" d="M301.9,203c0,0-8.2-7.9-21.3-3.8c-13.1,4.1-14.1,13.1-6.9,12.4C280.9,210.9,290.6,203.3,301.9,203z"/>
						<path class="st3" d="M275.6,233.1c0,0,2-6.4,8.9-10.2c7.7-4.3,16.5-3.3,25.8,1.2c3-4.1,4.3-7.9,4.3-7.9s0.4,17-3.7,13.3
							c-4.9-4.4-22.3-6.8-28.5,3.3C279.4,237.7,274.6,235.5,275.6,233.1z"/>
						<path class="st3" d="M311.1,232.6c-1.3-2.3-4.7-2.2-8.4-2.6C299,229.7,313.2,236.2,311.1,232.6z"/>
						<path class="st3" d="M273.3,228.4c-1.5,0.4,7-10,7-5.9C280.3,226.1,275.5,227.9,273.3,228.4z"/>
						<path class="st10" d="M211.6,221.2c0,0,5.1-10.2,18.8-10.7c13.7-0.5,17.6,7.6,10.6,9.4C234,221.7,222.4,217.8,211.6,221.2z"/>
						<path class="st3" d="M246.4,240.8c0,0-4-5.3-11.8-6.6c-8.7-1.5-16.7,2.4-23.9,9.7c-4.2-2.9-6.7-6-6.7-6s5.3,16.2,7.9,11.3
							c3.2-5.8,18.7-13.9,28-6.4C244.5,246.4,248.2,242.8,246.4,240.8z"/>
						<path class="st3" d="M212.8,252.2c0.5-2.6,3.7-3.7,7.1-5.2C223.2,245.5,212,256.3,212.8,252.2z"/>
						<path class="st3" d="M247.1,235.7c1.5-0.1-9.9-7.1-8.5-3.2C239.7,235.8,244.9,235.9,247.1,235.7z"/>
					</g>
					<g>
						<g>
							<path class="st10" d="M148,281c0,0,1,17.7,13.4,19.3c12.4,1.6,14.5,4,17.2,6.8c2.7,2.8-1.5-7.8-6.8-11.3
								C166.5,292.4,148,281,148,281z"/>
							<path class="st10" d="M169.4,187.2c0,0-6.8,27.8-16,41.2c-12.6,18.4-21.1,25.7-4.6,38.4C148.8,266.9,177.8,208.5,169.4,187.2
								z"/>
							<path class="st10" d="M323.1,152.5c0,0,13.9,22.4,25.2,29.1c11.3,6.7,27.8,22.7,22.7,39.7
								C365.8,238.2,325.2,177.5,323.1,152.5z"/>
							<path class="st10" d="M377.6,230c0,0,4.6,22.1-5.7,28.7c-10.3,6.5-12,11.6-10.3,14.1c1.7,2.5-3.1-14.1-3.1-14.1L377.6,230z"
								/>
							<path class="st10" d="M330.1,243.2c0,0-6.3,14.7-13.9,17.7c-7.6,3-11.3,9.7-4.9,16.4C317.7,284.2,338.2,250.7,330.1,243.2z"
								/>
						</g>
						<g>
							<path class="st0" d="M361.7,265.2c2.1-4.1,19.9-24.7,15.1-39.9c-4.8-15.1-32.3-33.7-42.6-54.3
								c-10.3-20.6-32.4-55.1-81.2-52.6c-48.8,2.5-78.2,29.8-83.1,65c-5.5,39.2-3.9,40.2-15.1,57.1c-6.9,10.3-17.9,41.9,4.8,52.9
								c22.7,11,21.3,17.2,17.2,20.6c0,0,11-0.1,13.7-11.4c0,0,4.8,8.6,4.1,11.4c0,0,6.2-4.9,5.5-11.4c0,0,6.2,8.6,4.8,11.4
								c0,0,10.3-6.2,8.2-18.6c0,0-9.3-21.3-6.3-45.6c23.5-16.9,29.3-56.6,31.1-67.2c2.1-12.4,1.4-33.7,10.3-37.1
								c6.6-2.5,9.4,3.5,10.4,6.9c0.3,1.3,0.5,2.1,0.5,2.1s3.5-15.8,10.4,0c6.9,15.8,17.8,29.1,50.2,48.1c11.7,6.9,4.1,46.1-11,45.4
								c0,0,7.6,6.2,21.3-4.8c0,0-3.4,18.7-15.8,29.6c-12.4,10.9-3.4,19.2,0,20.6c0,0-0.7-6.1,3.4-9.2c4.1-3.1,12.4-6.5,12.4-11.3
								c0,0,0.7,9,7.6,11.3c0,0,1.4-10.6,3.4-11.3c0,0,0.7,4.8,6.9,6.8c0,0,0-4.7,2.8-6.8c0,0,8.2,7.6,16.5,0
								C367.2,272.8,359.6,269.3,361.7,265.2z"/>
						</g>
						<g>
							<g>
								<path class="st10" d="M186.4,257l5.2-7c0,0-1.4,7.7,0,8.7c0,0,15.7,0.5,21.7-23c10.6-41.3,10.1-69.8,10.1-69.8
									s-7.4,87-29.4,89.4l0-1.4c0-19.4,18.3-95.2,18.3-95.2c-13.5,33.4-18.6,72.1-20.1,86l-5,8.5c0,0-5.7-20.7-0.7-45.3
									c5-24.6,15.5-44.7,15.5-44.7s-22.1,34.5-20.7,62.8C182.7,254.2,186.4,257,186.4,257z"/>
								<path class="st10" d="M175.1,250.1c1.7-17.2,3.5-28.3,2.4-43.2c-1-14.9,3.7-27.7,3.7-27.7s-7.5,13.8-6.8,30.6
									c0.7,16.8-1.7,27.5-2.1,32.1c-0.3,4.6-3.8,17.5,11.7,30.8c11.9,10.3,26.2,23.6,27.3,34.2c0.9-1.7,1.6-3.6,2-5.9
									c-1.4-2.8-4.1-7-9.5-13.4C191.6,273.1,173.4,267.3,175.1,250.1z"/>
								<path class="st10" d="M191.6,304.5C191.6,304.5,191.6,304.6,191.6,304.5C191.6,304.6,191.6,304.6,191.6,304.5
									C191.6,304.6,191.6,304.5,191.6,304.5z"/>
								<path class="st10" d="M165.5,238.4c3.1-15.1,2.2-38.4,2.2-38.4c-1.3,10-2.1,16.3-3.4,21.3c0.1,11.8-3.8,30.7-5.4,41.7
									c-2.1,14.3,20.3,29.7,25.1,34.9c2.3,2.5,4.2,5.5,5.4,7.9c0.4-0.9,0.8-1.9,1.1-3c-3.2-5-11.9-15.3-20.6-25.3
									C160,265.9,162.4,253.5,165.5,238.4z"/>
								<path class="st10" d="M190.5,286.2c-8.6-7.2-13-10.7-13-10.7s22.6,24.6,22.1,31.5l0.5-4.4
									C200.2,302.6,199.1,293.4,190.5,286.2z"/>
								<path class="st10" d="M280.3,146.3c0,0,6.2,28.5,21.8,38.8c15.6,10.3,34.2,33,28,56.9l-1.8,8c0,0,6.6-5.4,5.6-25
									c-1-19.6-11.4-26.1-22.6-36.4C300.2,178.3,283.4,158.7,280.3,146.3z"/>
								<path class="st10" d="M360.7,219.3c-1.3-7.9-26.7-30.9-33.7-41.5c-5.7-9.4-10.6-17.9-12.3-23c0,0,9.6,28.2,15.1,35.7
									c5.5,7.6,19.9,21,14.4,40.1c-5.1,17.7-14.5,36.9-13.9,43.5c0.1,0.4,0.2,0.8,0.3,1.3c2.1,4.5,2.3,5,2.3,5c0,0,0,0,0,0
									c0,0-2.4-8.5,4.1-21.9c6.5-13.4,18.3-32,8.4-50c-2.1-3.9-4.6-8.1-7.2-12.4c0.7,0.6,1.4,1.3,2.2,1.9
									c8.2,6.5,20.8,21.6,17.5,40.6c-2.7,15.6-6,28-8.1,34.9c0.3-0.3,0.5-0.6,0.9-0.8c0,0,0.4,0.4,1.1,0.9
									C354.1,268.5,364.5,242.7,360.7,219.3z"/>
								<path class="st10" d="M341.1,272.8c-0.3-3.4-2.4-1.7,2.8-13.4c5.2-11.7,8.9-18.4,8.9-23.7c0,0,0.7,8-3.8,18.5
									c-4.5,10.6-7.6,19.6-5.1,23.1C343.9,277.4,341.4,276.5,341.1,272.8z"/>
								<path class="st10" d="M361.5,267.6c0,0-1.1-2.2,1.5-9c2.6-6.8,10.1-20.7,2.6-35.1c0,0,8,12.8,3.1,28.9
									C364.3,266.5,360.7,266.1,361.5,267.6z"/>
								<path class="st10" d="M173,296c-8.2-4.6-19.6-11.9-19.8-25.3c0,0-5,15.9,16.1,29.4l-0.3-1.6c7.7,4.8,10.2,8.4,10.3,11.2l0,0
									C179.2,309.6,181.3,300.6,173,296z"/>
							</g>
						</g>
						<path class="st10" d="M206.4,264.3c-0.6-0.7-1.2-1.3-1.7-1.4c-2-0.4-2.8,3-2.8,3s-1.6-2.2-3.4-3.4c-1.8-1.2-2.7,1.1-2.7,1.1
							s3.6,5.9,3.7,5.8c0.1-0.1,7,1.3,7,1.3l0.3-0.8C206.7,268.1,206.5,266.2,206.4,264.3z"/>
					</g>
					<g>
						<path class="st8" d="M252.4,145.1c0,0-6.2-0.8-7.2,7.4c-1,8.2,5.5,83.3-38.8,106.2c0,0-3.1-10-1.3-13.1
							c1.8-3.1,21.7-96.2,35.7-102C254.8,137.7,252.4,145.1,252.4,145.1z"/>
					</g>
					<g>
						<path class="st8" d="M275.5,165.5c0,0,6.3,17,22.8,29.9c16.5,12.9,28.4,23.1,24.4,38.5c-4,15.4-10.6,23.1-16,23.1
							c0,0,16.4,3.7,28-10.4c11.5-14,7.8-40-16.9-55.3C293,176,275.5,165.5,275.5,165.5z"/>
					</g>
				</g>
				<g id="BODY_9_">
					<g>
						<path class="st7" d="M287,286.2c0,0-2.4,10,2.8,13.6c5.9,4.2,11.3,2.8,11.3,2.8s-15.9,56.8-34,60.5
							c-18.1,3.8-23.6-32.6-24.3-39.9c-0.7-7.2,9.7-31,9.7-31S273.4,290.5,287,286.2z"/>
					</g>
					<g>
						<path class="st8" d="M270.9,357.2c0,0-4-5.1-1.1-15.4c0,0,1.9,12.8,4.2,13.7L270.9,357.2z"/>
					</g>
					<g>
						<path class="st8" d="M287,286.2c0,0-0.6,4.9-0.3,6.7c0,0-13.4,6.2-29.4,5.5v-7.1C257.4,291.3,273.2,289.8,287,286.2z"/>
					</g>
					<path class="st3" d="M219.9,372.4c0,0-4.5,21.2,22.9,23.7c27.3,2.5,37.5,0,37.5,0l44.3-23.7l-23.7-62.8
						c0,0-18.4,56.5-33.7,51.3c-15.4-5.2-22.3-36.1-22.3-36.1S219.3,363.2,219.9,372.4z"/>
					<g>
						<path class="st0" d="M249.8,392.8l7.6-3.8c0,0,3.8,1.1,9.7-1.2c5.9-2.3,27-4.7,36.3-6.8c9.3-2.1,18.1-6.7,18.1-6.7
							s3.4-7.5,4.9-9c1.5-1.5,8.4-2.6,14,1c0,0-5.4,1.1-15,0.3c0,0-4.5,4.4-15.3,6.7c-10.8,2.2-63.6,12-73.6,19.5H249.8z"/>
					</g>
					<path class="st0" d="M250.7,326.4c0,0-20.6,48.3-29.3,57.7l-1.5-4.9l29.8-56L250.7,326.4z"/>
					<path class="st3" d="M360.8,387.8c4.9-17.8-19.6-64.1-30.2-77.5c-11.3-14.3-29.5-7.7-29.5-7.7s-0.8,6.2,0.2,12.9
						c-2.3,2.5,11.2,27.4,11.5,31.9c0.3,4.5,7.1,24.3,7.1,24.3s-5.4,3.4-11.6,4.8c-12.2,2.7-51,11.3-51,11.3
						c9.7,1.8,13.5,17.6,13.5,17.6c10.3-1.4,56.8,1.7,71.5-1.4c8.2-1.7,13-6.6,15.6-10.5c0.1,0.1,0.2,0.2,0.2,0.2
						c0.7-1.2,1.2-2.4,1.8-3.7C360.6,388.7,360.8,387.8,360.8,387.8L360.8,387.8z"/>
					<g>
						<path class="st8" d="M249.8,390.4c0.5-0.6-22.3,4.2-24.8,5.4c-2.6,1.2-11,5.2-14.9,5.7c-3.9,0.5-4.1,6.8,7.3,5.9
							C228.8,406.5,247.8,392.9,249.8,390.4z"/>
					</g>
					<g>
						<path class="st7" d="M257.4,387.8c0,0-29,9.6-33,11.9c-4,2.3-9,7-12.5,9.9c-5.3,4.4-11.3,8-9.3,10.4c2,2.4,7.4-0.8,7.4-0.8
							s-8.6,6.1-4.2,7.1c4.5,1,14-5,14-5s-5,3.7-2.2,5.2c3.1,1.6,8.2-1.6,14.8-4.9c-6.3,3.1-3.9,6,0.7,5.2
							c6.8-1.2,14.6-9.7,19.3-12.8c4.7-3.1,12.1-2.1,18.4-8.6C270.9,405.4,267.4,389.5,257.4,387.8z"/>
					</g>
					<g>
						<path class="st0" d="M321.5,371.5c0,0,4.3-9.7-3.4-22c0,0,1.8-4.8,3.4-10c0,0-4.4,5.8-6.9,10.2c0,0,10,14.1,0.2,23.9
							C307.9,373.8,321.5,371.5,321.5,371.5z"/>
					</g>
					<path class="st0" d="M312.7,375.3c0,0,10.9-4.6,20.2-1.6c0,0-3-3.5-12.8-1.9l-9.8,3.6H312.7z"/>
					<g>
						<path class="st0" d="M296.2,302.6c0,0-1.7,35-25.3,54.6c0,0-23.8-21.9-24-56.2h-8.5c0,0,2.4,51.4,32.5,69
							c0,0,28.1-19.3,32.5-68.1L296.2,302.6z"/>
					</g>
					<g>
						<path class="st8" d="M210.6,289.6c0,0-12.5-9.6-15.3-18.9c-2.7-9.3,2.7-9.2,4.8-1.3C202.3,277.4,210.6,289.6,210.6,289.6z"/>
					</g>
					<path class="st3" d="M244.5,302.6c0,0-18.2-6.6-29.5,7.7c-11.3,14.3-44.5,52.5-27.6,83.4c0,0,49.1-60.9,54-69.4
						C246.2,315.7,244.5,302.6,244.5,302.6z"/>
					<g>
						<path class="st0" d="M232.3,301.1c0,0-27.8,43.1-36.5,50.6c-7.1,6.1-12.5,18-9.4,28.3c3.1,10.3,41.6-56.7,41.6-56.7l6.5-15.8
							L232.3,301.1z"/>
					</g>
					<g>
						<path class="st7" d="M255.1,314c0,0,10.2-18.6,4.1-25.4c-6.1-6.9-18.5-2.8-26.8-7.6c-8.2-4.8-21.7-13-17.9-3.6
							c-5.1-6-6.5-6.1-9.9-10.5c-3.4-4.4-8.1,0.4-2.3,10.5c5.8,10.1,12,18.4,21.1,20.8c9.1,2.4,9.1,2.4,9.1,2.4l-2.7,6.9"/>
					</g>
					<path class="st3" d="M255.1,314c0,0-10.7-11.4-25.4-6.5c0,0-24.7,40.5-35.1,49.3c-10.3,8.8-13.2,29.9-5.8,39.2
						c7.4,9.3,29.2-7.2,37.7-23.2C234.9,356.8,255.1,314,255.1,314z"/>
					<g>
						<path class="st8" d="M232.5,300.6c0,0,5.3-0.9,7.6-2.2c0,0-4.4,4.4-8.9,5.6L232.5,300.6z"/>
					</g>
				</g>
			</g>
		</g>
	</g>
	<g id="SYMBOL">
		<path class="st3" d="M415.5,136.9c0,20.6-16.7,37.3-37.3,37.3c-20.6,0-37.3-16.7-37.3-37.3c0-20.6,16.7-37.3,37.3-37.3
			C398.8,99.7,415.5,116.3,415.5,136.9z"/>
		<path class="st1" d="M398.3,135.4c2.9-9.6-2.6-19.7-12.1-22.6c-9.6-2.9-19.7,2.6-22.6,12.1c-2.5,8.4,1.3,17.2,8.8,21.2l-0.6,2
			l-5.2-1.6l-2.1,6.9l5.2,1.6l-1.6,5.2l6.9,2.1l1.6-5.2l5.2,1.6l2.1-6.9l-5.2-1.6l0.6-2C387.7,149,395.8,143.7,398.3,135.4z
			 M370.5,127c1.7-5.8,7.8-9,13.6-7.3c5.8,1.7,9,7.8,7.3,13.6c-1.7,5.8-7.8,9-13.6,7.3C372,138.8,368.8,132.7,370.5,127z"/>
		<polygon class="st3" points="353.6,163.1 347.3,174.2 361.9,168.6 		"/>
	</g>
	<path id="SVGID_x5F_1_x5F_" class="st11" d="M122,163.2c40.3-75,133.8-103.1,208.7-62.8c75,40.3,103.1,133.8,62.8,208.7
		c-40.3,75-133.8,103.1-208.7,62.8C109.8,331.6,81.7,238.1,122,163.2z"/>
	<text>	<textPath  xlink:href="#SVGID_x5F_1_x5F_" startOffset="78.1267%">
<tspan  class="st3" style="font-family:'BebasKai'; font-size:30.9314px;">HAPPY INTERNATIONAL WOMEN’S DAY</tspan>	</textPath>
</text>
</g>
<g id="DESIGNED_BY_FREEPIK">
	<g>
		<g id="XMLID_319_">
			<g id="XMLID_338_">
				<path id="XMLID_346_" class="st12" d="M260.3,465.5c-0.4,0.4-0.8,0.9-1.1,1.5l-0.5-0.2c-0.1-0.3-0.3-0.5-0.7-0.5
					c-0.3,0-0.6,0.3-0.5,0.7c0,0.3,0.3,0.6,0.7,0.5c0.1,0,0.1,0,0.2-0.1l0.5,0.2c-0.3,0.6-0.4,1.1-0.5,1.7l0.7,0.1
					c0.2-1.3,0.8-2.5,1.8-3.5L260.3,465.5z"/>
				<path id="XMLID_345_" class="st12" d="M265.8,463.2c-0.2,0-0.3,0-0.5,0l-0.1-0.6c0.2-0.1,0.3-0.4,0.3-0.6c0-0.4-0.4-0.7-0.8-0.6
					c-0.4,0-0.7,0.4-0.6,0.8c0,0.3,0.2,0.5,0.4,0.6l0.1,0.6c-0.7,0.1-1.4,0.3-2.1,0.6l0.3,0.7c0.9-0.4,1.9-0.7,3-0.7
					c0.5,0,1,0.1,1.5,0.2l0.2-0.7C266.9,463.2,266.3,463.2,265.8,463.2z"/>
				<path id="XMLID_344_" class="st12" d="M272.4,465.7c0.3,0,0.6-0.3,0.5-0.7c0-0.3-0.3-0.6-0.7-0.5c-0.3,0-0.5,0.3-0.5,0.6
					l-0.4,0.4c-0.4-0.4-0.9-0.8-1.4-1.1l-0.4,0.6c1.1,0.7,2,1.7,2.6,2.9l0.7-0.3c-0.3-0.6-0.6-1.1-0.9-1.5l0.4-0.4
					C272.3,465.7,272.3,465.7,272.4,465.7z"/>
				<path id="XMLID_343_" class="st12" d="M265.2,473.4c-0.4,0-0.8,0-1.2,0c-0.9,0-1.7-0.1-2.5-0.2c-0.4-0.1-0.8-0.2-1.3-0.3
					c1,1.9,3.1,3.1,5.4,3.1c2.9,0,5.3-1.9,5.9-4.5c-0.7,0.4-1.5,0.8-2.5,1.1C268,473,266.7,473.3,265.2,473.4z"/>
				<path id="XMLID_339_" class="st12" d="M265.8,464.7c-3.4,0-6.1,2.7-6.1,5.9c0,0.4,0,0.8,0.1,1.3c0.7,0.5,2.7,0.9,5.3,0.7
					c2.9-0.2,5.3-1,6.7-2.2c0-0.2,0-0.4,0-0.6C271.4,466.9,268.8,464.7,265.8,464.7z M263.6,471.2c-1,0-1.8-0.8-1.8-1.8
					c0-1,0.8-1.9,1.8-1.9c1,0,1.8,0.8,1.8,1.9C265.5,470.4,264.7,471.2,263.6,471.2z M268.4,470.3c-0.8,0-1.4-0.6-1.4-1.4
					s0.6-1.4,1.4-1.4s1.4,0.6,1.4,1.4S269.1,470.3,268.4,470.3z"/>
			</g>
			<path id="XMLID_336_" class="st12" d="M281.8,466.5c-0.3-0.1-0.8-0.3-1.4-0.2c-0.6,0.1-0.8,0.3-0.8,1v0.9h2.2v1.7h-2.2v5.5h-1.9
				v-5.5h-1.3v-1.7h1.3v-0.9c0-1.7,0.9-2.8,2.6-2.8c0.6,0,1.2,0.1,1.6,0.3V466.5z"/>
			<path id="XMLID_334_" class="st12" d="M286.5,469.9c-0.2,0-0.4,0-0.5,0c-0.9,0-1.5,0.5-1.5,1.6v3.9h-1.9v-7.2h1.9v0.8
				c0.5-0.7,1.1-1,2-1c0.4,0,0.8,0.1,1.1,0.3L286.5,469.9z"/>
			<path id="XMLID_331_" class="st12" d="M294.2,471.8c0,0.2,0,0.5,0,0.7H289c0.2,1,0.9,1.5,1.8,1.5c0.6,0,1.3-0.3,1.8-0.7l1.1,1.2
				c-0.8,0.7-1.8,1.1-3.1,1.1c-2.2,0-3.7-1.5-3.7-3.8c0-2.3,1.5-3.8,3.6-3.8C292.7,468,294.2,469.5,294.2,471.8z M289,471.1h3.2
				c-0.2-0.9-0.7-1.4-1.6-1.4C289.8,469.7,289.2,470.2,289,471.1z"/>
			<path id="XMLID_328_" class="st12" d="M301.8,471.8c0,0.2,0,0.5,0,0.7h-5.1c0.2,1,0.9,1.5,1.8,1.5c0.6,0,1.3-0.3,1.8-0.7l1.1,1.2
				c-0.8,0.7-1.9,1.1-3.1,1.1c-2.2,0-3.7-1.5-3.7-3.8c0-2.3,1.5-3.8,3.6-3.8C300.4,468,301.8,469.5,301.8,471.8z M296.7,471.1h3.2
				c-0.2-0.9-0.7-1.4-1.6-1.4C297.4,469.7,296.9,470.2,296.7,471.1z"/>
			<path id="XMLID_325_" class="st12" d="M310.2,471.8c0,2.2-1.5,3.8-3.5,3.8c-1,0-1.6-0.4-2.1-0.9v3.7h-1.9v-10.1h1.9v0.8
				c0.5-0.6,1.2-1,2.1-1C308.7,468,310.2,469.6,310.2,471.8z M304.5,471.8c0,1.1,0.7,2,1.8,2c1.1,0,1.8-0.9,1.8-2c0-1.1-0.7-2-1.8-2
				C305.2,469.8,304.5,470.6,304.5,471.8z"/>
			<path id="XMLID_322_" class="st12" d="M313.3,465.8c0,0.7-0.5,1.2-1.2,1.2c-0.7,0-1.2-0.5-1.2-1.2c0-0.7,0.5-1.2,1.2-1.2
				C312.7,464.6,313.3,465.1,313.3,465.8z M313,475.4h-1.9v-7.2h1.9V475.4z"/>
			<path id="XMLID_320_" class="st12" d="M316.2,470.7l2.7-2.6h2.4l-3.5,3.4l3.5,3.8h-2.4l-2.7-2.9v2.9h-1.9v-10.7h1.9V470.7z"/>
		</g>
		<g>
			<path class="st12" d="M184.6,475.3v-1.1c-0.5,0.7-1.4,1.2-2.4,1.2c-1.8,0-3.1-1.4-3.1-3.7c0-2.3,1.3-3.7,3.1-3.7
				c1,0,1.8,0.5,2.4,1.2v-3.8h1.1v9.8H184.6z M184.6,473.4v-3.2c-0.4-0.6-1.2-1.1-2.1-1.1c-1.4,0-2.3,1.2-2.3,2.7
				c0,1.6,0.8,2.7,2.3,2.7C183.4,474.5,184.2,474,184.6,473.4z"/>
			<path class="st12" d="M187.1,471.7c0-2.1,1.5-3.7,3.5-3.7c2.1,0,3.4,1.7,3.4,3.8v0.3h-5.7c0.1,1.3,1,2.4,2.5,2.4
				c0.8,0,1.6-0.3,2.2-0.9l0.5,0.7c-0.7,0.7-1.7,1.1-2.8,1.1C188.6,475.5,187.1,474,187.1,471.7z M190.6,468.9
				c-1.5,0-2.3,1.3-2.3,2.4h4.6C192.9,470.3,192.2,468.9,190.6,468.9z"/>
			<path class="st12" d="M194.8,474.4l0.6-0.8c0.5,0.5,1.4,1,2.3,1c1.1,0,1.7-0.5,1.7-1.2c0-1.7-4.4-0.7-4.4-3.3c0-1.1,1-2,2.6-2
				c1.2,0,2.1,0.5,2.6,1l-0.5,0.8c-0.4-0.5-1.2-0.9-2.1-0.9c-1,0-1.6,0.5-1.6,1.1c0,1.6,4.4,0.5,4.4,3.3c0,1.2-1,2.1-2.8,2.1
				C196.5,475.5,195.5,475.1,194.8,474.4z"/>
			<path class="st12" d="M201.7,466.5c0-0.4,0.3-0.7,0.7-0.7c0.4,0,0.7,0.3,0.7,0.7c0,0.4-0.3,0.7-0.7,0.7
				C202,467.2,201.7,466.9,201.7,466.5z M201.9,475.3v-7.1h1.1v7.1H201.9z"/>
			<path class="st12" d="M204.8,477.1l0.6-0.8c0.6,0.7,1.3,1,2.3,1c1.2,0,2.3-0.6,2.3-2.1v-1c-0.5,0.7-1.4,1.3-2.4,1.3
				c-1.8,0-3.1-1.4-3.1-3.7c0-2.3,1.3-3.7,3.1-3.7c1,0,1.8,0.5,2.4,1.2v-1.1h1.1v6.9c0,2.3-1.6,3.1-3.4,3.1
				C206.4,478.2,205.6,477.9,204.8,477.1z M209.9,473.3v-3.1c-0.4-0.6-1.2-1.1-2.1-1.1c-1.4,0-2.3,1.1-2.3,2.7
				c0,1.6,0.8,2.7,2.3,2.7C208.7,474.4,209.5,473.9,209.9,473.3z"/>
			<path class="st12" d="M217.6,475.3v-4.6c0-1.2-0.6-1.6-1.6-1.6c-0.9,0-1.7,0.5-2.1,1.1v5.2h-1.1v-7.1h1.1v1
				c0.5-0.6,1.5-1.2,2.5-1.2c1.5,0,2.3,0.7,2.3,2.3v5H217.6z"/>
			<path class="st12" d="M220.1,471.7c0-2.1,1.5-3.7,3.5-3.7c2.1,0,3.4,1.7,3.4,3.8v0.3h-5.7c0.1,1.3,1,2.4,2.5,2.4
				c0.8,0,1.6-0.3,2.2-0.9l0.5,0.7c-0.7,0.7-1.7,1.1-2.8,1.1C221.6,475.5,220.1,474,220.1,471.7z M223.6,468.9
				c-1.5,0-2.3,1.3-2.3,2.4h4.6C225.9,470.3,225.2,468.9,223.6,468.9z"/>
			<path class="st12" d="M233.5,475.3v-1.1c-0.5,0.7-1.4,1.2-2.4,1.2c-1.8,0-3.1-1.4-3.1-3.7c0-2.3,1.3-3.7,3.1-3.7
				c1,0,1.8,0.5,2.4,1.2v-3.8h1.1v9.8H233.5z M233.5,473.4v-3.2c-0.4-0.6-1.2-1.1-2.1-1.1c-1.4,0-2.3,1.2-2.3,2.7
				c0,1.6,0.8,2.7,2.3,2.7C232.3,474.5,233.2,474,233.5,473.4z"/>
			<path class="st12" d="M239.9,475.3v-9.8h1.1v3.8c0.6-0.8,1.4-1.2,2.4-1.2c1.8,0,3.1,1.5,3.1,3.7c0,2.3-1.3,3.7-3.1,3.7
				c-1,0-1.9-0.5-2.4-1.2v1.1H239.9z M243.1,474.5c1.4,0,2.3-1.2,2.3-2.7c0-1.6-0.8-2.7-2.3-2.7c-0.9,0-1.7,0.5-2.1,1.1v3.2
				C241.4,474,242.2,474.5,243.1,474.5z"/>
			<path class="st12" d="M247.7,477.1c0.2,0.1,0.4,0.1,0.6,0.1c0.5,0,0.8-0.2,1.1-0.7l0.5-1.1l-3-7.1h1.2l2.4,5.8l2.3-5.8h1.2
				l-3.5,8.5c-0.4,1-1.1,1.4-2.1,1.4c-0.2,0-0.6,0-0.8-0.1L247.7,477.1z"/>
		</g>
	</g>
</g>
</svg>
