<?xml version="1.0" encoding="utf-8"?>
<!-- Generator: Adobe Illustrator 24.0.1, SVG Export Plug-In . SVG Version: 6.00 Build 0)  -->
<svg version="1.1" id="Layer_1" xmlns="http://www.w3.org/2000/svg" xmlns:xlink="http://www.w3.org/1999/xlink" x="0px" y="0px"
	 viewBox="0 0 1500 1500" style="enable-background:new 0 0 1500 1500;" xml:space="preserve">
<style type="text/css">
	.st0{fill:#FFFFFF;stroke:#BD545E;stroke-width:7;stroke-miterlimit:10;}
	.st1{fill:#FFFFFF;stroke:#BD545E;stroke-width:4;stroke-miterlimit:10;}
	.st2{fill:#FFFFFF;}
	.st3{fill:#BD545E;stroke:#BD545E;stroke-width:13;stroke-miterlimit:10;}
</style>
<circle class="st0" cx="750" cy="761" r="700"/>
<circle class="st1" cx="750.1" cy="749.6" r="632.5"/>
<rect x="314.7" y="204.9" transform="matrix(0.866 -0.5 0.5 0.866 -55.176 242.3882)" class="st2" width="219.9" height="38.5"/>
<rect x="544.3" y="125" transform="matrix(0.9812 -0.1929 0.1929 0.9812 -15.7533 116.3214)" class="st2" width="90.5" height="28.2"/>
<g>
	<path class="st3" d="M448.5,591.9V542h-93.6v49.9c0,10.2,1.4,17.3,4.3,21.3c2.9,4,8.1,6,15.6,6v5h-62.1v-5c7.5,0,12.6-2,15.4-6.1
		c2.7-4.1,4.1-11.1,4.1-21.2V484.8c0-10.6-1.4-17.8-4.2-21.6s-7.9-5.8-15.3-5.8v-5h62.1v5c-7.5,0-12.7,2.1-15.6,6.2
		c-2.9,4.2-4.3,11.2-4.3,21.2v48.9h93.6v-48.9c0-10.5-1.3-17.7-4-21.6c-2.7-3.9-7.7-5.8-15.2-5.8v-5h61.5v5c-7.3,0-12.4,2-15.2,6
		c-2.8,4-4.2,11.1-4.2,21.4v107.2c0,10.3,1.4,17.4,4.2,21.3c2.8,4,7.9,5.9,15.2,5.9v5h-61.5v-5c7.6,0,12.7-2,15.3-5.9
		C447.2,609.3,448.5,602.2,448.5,591.9z"/>
	<path class="st3" d="M623.4,460.7h-26.1v132.1c0,10.4,1.3,17.4,3.8,21c2.5,3.6,7.5,5.4,14.8,5.4v5h-60.8v-5
		c7.6,0,12.7-2.1,15.4-6.2c2.7-4.2,4.1-11.2,4.1-21V460.7h-24.9c-11.9,0-20.6,1.9-26,5.7s-8.5,10.1-9.2,18.9h-5.1v-39.4h5.1
		c4.6,4.3,13.2,6.4,25.8,6.4h90.1c13,0,22.1-2.1,27.2-6.4h5.4v39.4h-3.4c-2.1-9.5-6-15.9-11.5-19.4
		C642.7,462.5,634.4,460.7,623.4,460.7z"/>
	<path class="st3" d="M842.5,452.4h40.6v5c-12.9,0.3-19.3,7.9-19.3,22.9c0,1.3,0,2.6,0.1,4l8.6,105.9c1,11.3,2.9,18.8,5.8,22.5
		c2.9,3.7,8.1,5.9,15.6,6.6v5h-61.8v-5c6.6-1.1,11.2-3.2,13.9-6.5s4-8.2,4-14.9c0-1.4,0-2.9-0.1-4.6l-9.2-111.1l-58.9,142h-4.5
		l-58.1-141.7l-9.7,105.7c-0.1,1.7-0.1,3.2-0.1,4.7c0,14.8,7.5,23.6,22.4,26.4v5h-53.5v-5c7.1-1,12.3-3.5,15.5-7.6
		c3.2-4,5.3-12.1,6.5-24.1l10.4-118.2c-6.1-6.5-13.5-10.5-22.4-12v-5h43.5l55,135.2L842.5,452.4z"/>
	<path class="st3" d="M1045,586.7h5.1l-10.5,37.5H915v-5c7,0,12-2.2,15-6.6c3-4.4,4.5-11.8,4.5-22.1V482.3c0-9.3-1.4-15.8-4.2-19.4
		c-2.8-3.7-7.9-5.5-15.3-5.5v-5h61.5v5c-6.8,0-11.7,2.1-14.7,6.3c-3,4.2-4.5,11.1-4.5,20.8v114.8c0,6.3,1.3,10.7,4,13
		c2.7,2.3,7.8,3.5,15.5,3.5h34.1c10.5,0,17.9-1.8,22.1-5.5C1037.3,606.7,1041.3,598.8,1045,586.7z"/>
	<path class="st3" d="M1163.5,468.5h-64.6l-1.8,60.9c4.8-0.7,9.3-1,13.6-1c16.5,0,29.7,4.6,39.5,13.8c9.8,9.2,14.7,20.6,14.7,34.3
		c0,14.6-5,26.8-14.9,36.5c-10,9.7-22.5,14.6-37.5,14.6c-18.9,0-34.5-8.2-46.6-24.6l4.5-2.8c9.3,11.4,20.4,17.1,33.3,17.1
		c11,0,20.3-3.7,27.8-11s11.2-16.4,11.2-27.1c0-10.7-3.9-19.5-11.6-26.3c-7.8-6.8-18.3-10.2-31.7-10.2c-3.6,0-7.4,0.2-11.4,0.7
		l2.6-91.1h72.9V468.5z"/>
</g>
<g>
	<path class="st3" d="M612.9,897.2v51.3h-5.1c-4.1-15.9-10.7-27.6-19.7-35.2c-9-7.5-21.1-11.3-36.1-11.3c-19.5,0-35,7-46.4,21.1
		s-17.1,32.8-17.1,56.3c0,25.7,6,46.4,18.1,62c12.1,15.7,27.9,23.5,47.4,23.5c27,0,47-12.6,59.9-37.8l4.5,4.2
		c-5.8,13.7-15.1,24.5-27.9,32.4c-12.8,8-27.5,11.9-43.9,11.9c-15.5,0-29.9-3.7-43.1-11c-13.2-7.3-23.4-17.4-30.6-30.2
		c-7.2-12.8-10.8-27.6-10.8-44.3c0-27.3,8.4-50,25.2-67.9c16.8-17.9,38-26.9,63.6-26.9c8.6,0,19.5,1.5,32.7,4.5
		c7.4,1.8,12.5,2.6,15.4,2.6c4.4,0,7.5-1.8,9.2-5.4H612.9z"/>
	<path class="st3" d="M730.2,897.2h4.8v40.3h-5.1c-1.2-11.1-5.2-19.8-12.1-26.1c-6.9-6.2-15.6-9.4-26-9.4c-9.3,0-16.7,2.3-22.4,7
		c-5.7,4.7-8.5,10.9-8.5,18.8c0,7.2,2.3,13.8,7,19.8c4.7,6,14.8,13.6,30.5,23c18.2,10.8,30.4,20.3,36.6,28.4
		c6.2,8.1,9.4,17.4,9.4,27.8c0,13.5-4.8,25-14.3,34.6c-9.6,9.6-21.1,14.4-34.5,14.4c-7.8,0-17.7-2.1-29.8-6.4
		c-5-1.8-8.1-2.6-9.5-2.6c-2.8,0-5,2.2-6.6,6.6h-5.1v-46.4h5.1c0.1,12.8,4.3,23,12.5,30.8c8.2,7.7,17.9,11.6,28.9,11.6
		c10.4,0,18.8-2.8,25.1-8.4c6.3-5.6,9.4-13,9.4-22.3c0-6.9-2.6-13.6-7.8-19.9c-5.2-6.4-16-14.5-32.4-24.6
		c-13.4-8.3-22.3-14.8-26.8-19.6c-4.5-4.8-7.8-10-9.9-15.8c-2.1-5.7-3.2-12-3.2-18.8c0-13.2,4.3-23.9,13-32.1
		c8.6-8.2,19.9-12.3,33.8-12.3c7.6,0,15.9,1.5,24.9,4.5c4.2,1.4,7.1,2.1,8.8,2.1c1.4,0,2.3-0.3,2.8-0.9
		C729.1,900.5,729.6,899.2,730.2,897.2z"/>
	<path class="st3" d="M855.3,897.2h4.8v40.3H855c-1.2-11.1-5.2-19.8-12.1-26.1c-6.9-6.2-15.6-9.4-26-9.4c-9.3,0-16.7,2.3-22.4,7
		c-5.7,4.7-8.5,10.9-8.5,18.8c0,7.2,2.3,13.8,7,19.8c4.7,6,14.8,13.6,30.5,23c18.2,10.8,30.4,20.3,36.6,28.4
		c6.2,8.1,9.4,17.4,9.4,27.8c0,13.5-4.8,25-14.3,34.6c-9.6,9.6-21.1,14.4-34.5,14.4c-7.8,0-17.7-2.1-29.8-6.4
		c-5-1.8-8.1-2.6-9.5-2.6c-2.8,0-5,2.2-6.6,6.6h-5.1v-46.4h5.1c0.1,12.8,4.3,23,12.5,30.8c8.2,7.7,17.9,11.6,28.9,11.6
		c10.4,0,18.8-2.8,25.1-8.4c6.3-5.6,9.4-13,9.4-22.3c0-6.9-2.6-13.6-7.8-19.9c-5.2-6.4-16-14.5-32.4-24.6
		c-13.4-8.3-22.3-14.8-26.8-19.6c-4.5-4.8-7.8-10-9.9-15.8c-2.1-5.7-3.2-12-3.2-18.8c0-13.2,4.3-23.9,13-32.1
		c8.6-8.2,19.9-12.3,33.8-12.3c7.6,0,15.9,1.5,24.9,4.5c4.2,1.4,7.1,2.1,8.8,2.1c1.4,0,2.3-0.3,2.8-0.9
		C854.2,900.5,854.7,899.2,855.3,897.2z"/>
	<path class="st3" d="M914.5,984v-5c35.2-6.2,52.7-20.7,52.7-43.5c0-8.4-2.8-15.5-8.4-21.3c-5.6-5.8-12.6-8.7-20.9-8.7
		c-5.9,0-11.3,1.6-16.2,4.8c-4.9,3.2-8.8,7.6-11.5,13.2l-4.8-2.1c2.8-8,7.9-14.4,15.2-19c7.3-4.7,15.6-7,25.1-7
		c11.9,0,21.8,3.7,29.7,11s11.9,16.5,11.9,27.4c0,8.5-2.6,16.2-7.8,23.2c-5.2,7-12.8,12.5-22.6,16.6v0.6c11.9,3.1,21.2,8.9,28,17.3
		c6.7,8.4,10.1,18.5,10.1,30.2c0,15.7-5,28.5-15.1,38.4c-10.1,9.9-23,14.8-39,14.8c-8.8,0-16.4-1.4-22.9-4.2s-13.1-7.7-20.1-14.6
		l3.7-3.7c11.5,9.4,22.8,14.1,33.8,14.1c10.9,0,20-3.4,27.2-10.1c7.2-6.7,10.8-15.6,10.8-26.6c0-11.9-3.9-22.7-11.6-32.2
		c-7.7-9.5-17.7-14.3-30-14.3L914.5,984z"/>
</g>
</svg>
