<?xml version="1.0" encoding="utf-8"?>
<!-- Generator: Adobe Illustrator 24.0.1, SVG Export Plug-In . SVG Version: 6.00 Build 0)  -->
<svg version="1.1" id="Layer_1" xmlns="http://www.w3.org/2000/svg" xmlns:xlink="http://www.w3.org/1999/xlink" x="0px" y="0px"
	 viewBox="0 0 100 100" style="enable-background:new 0 0 100 100;" xml:space="preserve">
<style type="text/css">
	.st0{fill:#FCFCFC;stroke:#BD545E;stroke-miterlimit:10;}
	.st1{fill:#BD545E;}
</style>
<circle class="st0" cx="46.2" cy="50" r="20.6"/>
<circle class="st0" cx="46.1" cy="49.8" r="18.3"/>
<g>
	<path class="st1" d="M37.9,46c-1,0.1-1.1,0.1-1.1,1v4.2c0,0.9,0.1,0.9,1.1,1v0.3h-3.4v-0.3c1.1-0.1,1.2-0.1,1.2-1v-2h-4.2v2
		c0,0.9,0.1,0.9,1.1,1v0.3h-3.3v-0.3c1-0.1,1.1-0.1,1.1-1V47c0-0.9-0.1-0.9-1.1-1v-0.3h3.3V46c-0.9,0.1-1,0.1-1,1v1.6h4.2V47
		c0-0.9-0.1-0.9-1.1-1v-0.3h3.3V46z"/>
	<path class="st1" d="M45.4,47.4c-0.1-0.5-0.3-0.8-0.4-1c-0.2-0.2-0.4-0.3-1.3-0.3h-0.8v5.1c0,0.8,0.1,1,1.3,1v0.3h-3.6v-0.3
		c1.1-0.1,1.2-0.2,1.2-1v-5.1h-0.7c-1.1,0-1.3,0.1-1.5,0.3c-0.2,0.2-0.3,0.5-0.4,1h-0.4c0.1-0.7,0.1-1.4,0.1-2h0.3
		c0.2,0.3,0.3,0.3,0.7,0.3h4.9c0.3,0,0.4-0.1,0.6-0.3h0.3c0,0.5,0.1,1.3,0.1,1.9L45.4,47.4z"/>
	<path class="st1" d="M53.4,52.5v-0.3c1-0.1,1-0.2,1-1.3l0-4.2h0l-3,5.7h-0.2l-2.8-5.5h0l-0.2,2.9c0,0.9,0,1.3,0,1.7
		c0,0.5,0.3,0.6,1.1,0.6v0.3h-2.9v-0.3c0.7-0.1,0.9-0.2,1-0.6c0.1-0.4,0.1-0.8,0.2-1.9l0.2-2.1c0.1-1.4,0-1.4-1.1-1.5v-0.3h2.1
		l2.8,5.1l2.8-5.1h2.1V46c-1.1,0.1-1.1,0.1-1.1,1.1l0.1,3.8c0,1.1,0.1,1.2,1.1,1.3v0.3H53.4z"/>
	<path class="st1" d="M63.5,50.8c-0.1,0.4-0.3,1.4-0.5,1.7h-5.6v-0.3c1-0.1,1.2-0.1,1.2-1v-4.1c0-0.9-0.1-1-1.1-1v-0.3h3.3V46
		c-1,0.1-1.1,0.1-1.1,1v4.1c0,0.6,0.1,0.8,0.3,0.9c0.2,0.1,0.7,0.1,1.1,0.1c0.6,0,1.1-0.1,1.4-0.3c0.2-0.2,0.5-0.5,0.7-1L63.5,50.8z
		"/>
</g>
</svg>
