<?xml version="1.0" encoding="utf-8"?>
<!-- Generator: Adobe Illustrator 24.0.1, SVG Export Plug-In . SVG Version: 6.00 Build 0)  -->
<svg version="1.1" id="Layer_1" xmlns="http://www.w3.org/2000/svg" xmlns:xlink="http://www.w3.org/1999/xlink" x="0px" y="0px"
	 viewBox="0 0 1920 837" style="enable-background:new 0 0 1920 837;" xml:space="preserve">
<style type="text/css">
	.st0{fill:#FFFFFF;stroke:#BD545E;stroke-width:8;stroke-miterlimit:10;}
	.st1{fill:#FFFFFF;stroke:#BD545E;stroke-width:5;stroke-miterlimit:10;}
	.st2{fill:#BD545E;}
	.st3{opacity:0.99;fill:#BD545E;}
</style>
<circle class="st0" cx="917.8" cy="435.2" r="334"/>
<circle class="st1" cx="917.8" cy="435.2" r="292.2"/>
<g>
	<path class="st2" d="M768.6,412.9h-42.8v-4.2c1.2-0.1,2.8-0.2,5.1-0.4c2.2-0.2,3.7-0.4,4.5-0.7c1.5-0.5,2.5-1.2,3.2-2.2
		c0.7-1,1-2.2,1-3.8v-29.9h-48.5v29.2c0,1.4,0.3,2.5,0.8,3.5c0.6,0.9,1.7,1.8,3.3,2.5c0.8,0.4,2.3,0.7,4.4,1.1
		c2.1,0.4,3.8,0.6,5,0.6v4.2h-42.8v-4.2c1.2-0.1,2.8-0.2,5.1-0.4c2.2-0.2,3.7-0.4,4.5-0.7c1.5-0.5,2.5-1.2,3.2-2.2
		c0.7-1,1-2.2,1-3.8v-60.5c0-1.3-0.3-2.4-0.9-3.5c-0.6-1-1.7-1.9-3.3-2.5c-1.3-0.5-2.9-1-4.8-1.4c-1.9-0.4-3.5-0.6-4.8-0.7V329h42.8
		v4.2c-1.4,0-3,0.2-5,0.5c-2,0.3-3.4,0.6-4.4,0.9c-1.6,0.5-2.8,1.3-3.3,2.4c-0.6,1.1-0.8,2.3-0.8,3.6v26h48.5v-25.4
		c0-1.3-0.3-2.4-0.9-3.5c-0.6-1-1.7-1.9-3.3-2.5c-1.3-0.5-2.9-1-4.8-1.4c-1.9-0.4-3.5-0.6-4.8-0.7V329h42.8v4.2c-1.4,0-3,0.2-5,0.5
		c-2,0.3-3.4,0.6-4.4,0.9c-1.6,0.5-2.8,1.3-3.3,2.4c-0.6,1.1-0.8,2.3-0.8,3.6v60.5c0,1.4,0.3,2.5,0.8,3.5c0.6,0.9,1.7,1.8,3.3,2.5
		c0.8,0.4,2.3,0.7,4.4,1.1c2.1,0.4,3.8,0.6,5,0.6V412.9z"/>
	<path class="st2" d="M867,351.8h-5c-0.4-1.4-1.2-3.1-2.4-5.1c-1.1-2-2.4-3.8-3.8-5.5c-1.5-1.8-3-3.4-4.8-4.8
		c-1.7-1.4-3.4-2.1-5-2.3c-1.5-0.2-3.4-0.3-5.7-0.4c-2.3-0.1-4.4-0.1-6.3-0.1h-4.2v67.1c0,1.3,0.3,2.5,1,3.6
		c0.7,1.1,1.9,1.9,3.6,2.5c0.9,0.3,2.7,0.7,5.5,1.1c2.8,0.5,5,0.7,6.5,0.8v4.2h-48.7v-4.2c1.4-0.1,3.4-0.2,6.2-0.5
		c2.8-0.2,4.7-0.5,5.8-0.9c1.6-0.5,2.8-1.3,3.5-2.2c0.8-1,1.1-2.3,1.1-3.9v-67.6h-4.2c-1.5,0-3.4,0-5.6,0.1
		c-2.2,0.1-4.4,0.2-6.4,0.4c-1.6,0.2-3.3,0.9-5,2.3c-1.7,1.4-3.3,3-4.8,4.8c-1.5,1.8-2.7,3.7-3.9,5.6c-1.1,2-1.9,3.6-2.3,4.9h-5.1
		V329H867V351.8z"/>
	<path class="st2" d="M999.3,412.9h-45.6v-4.2c1.6,0,3.8-0.2,6.4-0.4c2.6-0.2,4.4-0.6,5.3-1c1.5-0.7,2.6-1.6,3.3-2.6
		c0.7-1,1.1-2.2,1.1-3.6v-61h-1.1l-35.2,71.5h-3.6l-33.5-73h-0.9v50.1c0,4.8,0.4,8.5,1.1,11.1c0.8,2.5,1.9,4.3,3.5,5.4
		c1.1,0.8,3.3,1.6,6.6,2.4c3.3,0.7,5.5,1.1,6.5,1.2v4.2h-41.6v-4.2c2.2-0.2,4.5-0.5,6.9-0.9c2.4-0.4,4.3-1.1,5.6-2
		c1.7-1.1,2.9-2.8,3.5-5.1c0.6-2.3,0.9-6.1,0.9-11.5v-42.9c0-2.5-0.4-4.5-1.1-6.1c-0.7-1.6-1.8-2.9-3.1-3.8
		c-1.5-1.1-3.3-1.9-5.5-2.4c-2.2-0.5-4.3-0.8-6.5-0.9V329h35.2l29.5,63l25.2-52.7c0.9-1.9,1.7-4,2.4-6.1c0.7-2.1,1-3.5,1.1-4.2h33.6
		v4.2c-1.4,0-3.1,0.2-5.2,0.5c-2.1,0.3-3.6,0.6-4.6,0.9c-1.6,0.5-2.8,1.3-3.3,2.4c-0.6,1.1-0.9,2.3-0.9,3.6v60.5
		c0,1.4,0.3,2.5,0.9,3.5c0.6,0.9,1.7,1.8,3.3,2.5c0.9,0.4,2.4,0.8,4.7,1.1c2.2,0.3,4,0.5,5.3,0.6V412.9z"/>
	<path class="st2" d="M1096,388l-2.2,24.9h-80.6v-4.2c1.2-0.1,2.8-0.2,5.1-0.4c2.2-0.2,3.7-0.5,4.6-0.8c1.5-0.5,2.5-1.3,3.2-2.2
		c0.7-1,1-2.2,1-3.8v-60.1c0-1.3-0.3-2.5-0.8-3.5c-0.6-1-1.7-1.9-3.3-2.5c-1.1-0.5-2.7-0.9-4.7-1.4c-2-0.5-3.7-0.7-5-0.8V329h43.5
		v4.2c-1.4,0-3.1,0.2-5.3,0.6c-2.2,0.4-3.7,0.7-4.7,0.9c-1.6,0.5-2.8,1.3-3.4,2.4c-0.6,1.1-0.9,2.4-0.9,3.7v56.3
		c0,2.6,0.2,4.6,0.5,6.1c0.3,1.4,1.1,2.6,2.2,3.3c1.1,0.7,2.8,1.2,5,1.4c2.2,0.2,5.3,0.3,9.3,0.3c1.8,0,3.7,0,5.6-0.1
		c1.9-0.1,3.8-0.2,5.5-0.5c1.7-0.2,3.3-0.6,4.7-1c1.4-0.4,2.5-0.9,3.2-1.6c2-1.8,4.3-4.6,6.9-8.2c2.6-3.7,4.5-6.7,5.5-9H1096z"/>
	<path class="st2" d="M1157.2,385.2c3.2,2,5.9,4.7,8,7.9c2.1,3.2,3.2,7.3,3.2,12.1c0,8.5-3.6,15.5-10.7,21
		c-7.1,5.5-16.2,8.3-27.1,8.3c-8.5,0-15.7-1.6-21.5-4.9c-5.9-3.3-8.8-7.1-8.8-11.4c0-2,0.6-3.8,1.8-5.3c1.2-1.5,3.1-2.2,5.6-2.2
		c2.9,0,5.1,0.6,6.7,1.9c1.5,1.2,2.3,2.6,2.3,4c0,1.3-0.3,2.8-0.8,4.7s-0.9,3.3-1.2,4.2c0.4,0.3,1,0.7,1.9,1.1
		c0.9,0.5,1.9,0.9,3.1,1.4c1.3,0.4,2.8,0.8,4.6,1.2c1.8,0.3,3.9,0.5,6.4,0.5c3.1,0,6-0.5,8.8-1.5c2.8-1,5.1-2.5,7-4.6
		c2.1-2.2,3.6-4.7,4.7-7.5c1-2.8,1.6-6.4,1.6-10.7c0-5.6-1.9-10.2-5.7-13.8c-3.8-3.6-8.8-5.5-15-5.5c-3.9,0-7.5,0.6-10.9,1.8
		c-3.4,1.2-6.4,3.2-9,5.9l-4.9-1.5l6.2-42.7h52V360h-46.2l-3.8,25.1c2.2-1.3,5.1-2.5,8.6-3.8s7.5-1.9,11.7-1.9c3.5,0,7.2,0.4,11,1.3
		C1150.5,381.7,1154,383.1,1157.2,385.2z"/>
</g>
<g>
	<path class="st3" d="M800.5,587.5c-6.1,0-12-1-17.6-2.9c-5.6-2-10.6-4.8-14.9-8.5c-4.3-3.7-7.7-8.2-10.3-13.5
		c-2.6-5.3-3.8-11.3-3.8-18c0-6.7,1.3-12.7,3.8-18.2c2.5-5.4,6-10.1,10.4-14.1c4.4-3.9,9.6-6.9,15.6-9c6-2.1,12.4-3.2,19.2-3.2
		c5.1,0,9.6,0.5,13.7,1.5c4.1,1,8,2.5,11.7,4.3l3-4h5.8l0.7,29.8h-5.9c-0.8-2.9-1.9-6.1-3.5-9.5c-1.5-3.4-3.4-6.3-5.4-8.6
		c-2.3-2.7-5.1-4.8-8.2-6.3c-3.2-1.5-6.8-2.3-10.9-2.3c-4.7,0-9,0.8-13.1,2.5c-4,1.7-7.5,4.2-10.5,7.5c-2.8,3.2-5,7.2-6.6,12.1
		c-1.6,4.9-2.4,10.4-2.4,16.5c0,5.3,0.8,10.3,2.5,14.7c1.7,4.5,4,8.4,7.1,11.8c3.1,3.3,6.7,6,11,7.8c4.2,1.9,8.9,2.8,14.1,2.8
		c3.9,0,7.5-0.5,10.8-1.5c3.3-1,6.1-2.3,8.5-4c2.4-1.7,4.5-3.7,6.4-5.9s3.3-4.6,4.5-7.2l5.4,2.1c-4.1,8.3-9.6,14.2-16.5,17.8
		C818.1,585.8,809.9,587.5,800.5,587.5z"/>
	<path class="st3" d="M914.5,547.2c2.2,2,3.8,4.1,4.8,6.5c1,2.3,1.6,5.1,1.6,8.2c0,7.4-3.4,13.5-10.1,18.3c-6.7,4.8-15,7.2-25,7.2
		c-4.6,0-9.2-0.6-13.8-1.7c-4.6-1.2-8.5-2.6-11.9-4.2l-3.1,4.3h-5.8l-1-28.6h5.9c1.2,3.5,2.6,6.7,4.2,9.6c1.6,2.8,3.8,5.5,6.4,8
		c2.5,2.3,5.4,4.2,8.8,5.5c3.4,1.4,7.3,2.1,11.7,2.1c3.3,0,6.2-0.4,8.7-1.1c2.5-0.7,4.5-1.7,6-3c1.5-1.3,2.7-2.8,3.4-4.6
		c0.7-1.8,1.1-3.8,1.1-6c0-3.3-1.2-6.5-3.5-9.4c-2.3-2.9-5.8-5.1-10.4-6.6c-3.1-1-6.7-2.1-10.8-3.4c-4.1-1.2-7.6-2.4-10.5-3.5
		c-5.8-2.1-10.3-4.9-13.5-8.3c-3.2-3.4-4.8-7.9-4.8-13.5c0-3.2,0.8-6.1,2.4-8.9c1.6-2.7,3.9-5.2,6.8-7.4c2.8-2,6.1-3.6,9.9-4.8
		c3.8-1.2,7.8-1.7,12-1.7c4.7,0,9,0.6,12.7,1.8c3.7,1.2,7.2,2.6,10.2,4.1l3-4h5.8l0.6,27.8h-5.9c-1.1-3.2-2.3-6.2-3.6-9.1
		c-1.3-2.9-3.1-5.5-5.2-7.9c-2.1-2.3-4.6-4.1-7.6-5.4c-3-1.4-6.7-2-11-2c-4.6,0-8.5,1.2-11.7,3.6c-3.2,2.4-4.9,5.3-4.9,8.8
		c0,3.6,1,6.6,3.1,9c2.1,2.4,5.1,4.3,9.1,5.9c3.5,1.4,7,2.6,10.4,3.6c3.4,1,6.7,2.1,9.9,3.2c2.9,1,5.7,2.2,8.4,3.5
		C910.2,543.9,912.5,545.5,914.5,547.2z"/>
	<path class="st3" d="M997.7,547.2c2.2,2,3.8,4.1,4.8,6.5s1.6,5.1,1.6,8.2c0,7.4-3.4,13.5-10.1,18.3c-6.7,4.8-15,7.2-25,7.2
		c-4.6,0-9.2-0.6-13.8-1.7c-4.6-1.2-8.5-2.6-11.9-4.2l-3.1,4.3h-5.8l-1-28.6h5.9c1.2,3.5,2.6,6.7,4.2,9.6c1.6,2.8,3.8,5.5,6.4,8
		c2.5,2.3,5.4,4.2,8.8,5.5c3.4,1.4,7.3,2.1,11.7,2.1c3.3,0,6.2-0.4,8.7-1.1c2.5-0.7,4.5-1.7,6-3c1.5-1.3,2.7-2.8,3.4-4.6
		c0.7-1.8,1.1-3.8,1.1-6c0-3.3-1.2-6.5-3.5-9.4s-5.8-5.1-10.4-6.6c-3.1-1-6.7-2.1-10.8-3.4c-4.1-1.2-7.6-2.4-10.5-3.5
		c-5.8-2.1-10.3-4.9-13.5-8.3c-3.2-3.4-4.8-7.9-4.8-13.5c0-3.2,0.8-6.1,2.4-8.9c1.6-2.7,3.9-5.2,6.8-7.4c2.8-2,6.1-3.6,9.9-4.8
		c3.8-1.2,7.8-1.7,12-1.7c4.7,0,9,0.6,12.7,1.8c3.7,1.2,7.2,2.6,10.3,4.1l3-4h5.8l0.6,27.8h-5.9c-1.1-3.2-2.3-6.2-3.6-9.1
		c-1.3-2.9-3.1-5.5-5.2-7.9c-2.1-2.3-4.6-4.1-7.6-5.4c-3-1.4-6.7-2-11-2c-4.6,0-8.5,1.2-11.7,3.6c-3.2,2.4-4.9,5.3-4.9,8.8
		c0,3.6,1,6.6,3.1,9c2.1,2.4,5.1,4.3,9.1,5.9c3.5,1.4,7,2.6,10.4,3.6s6.7,2.1,9.9,3.2c2.9,1,5.7,2.2,8.4,3.5
		C993.4,543.9,995.7,545.5,997.7,547.2z"/>
	<path class="st3" d="M1045.1,607c-4.5,0-8.7-0.5-12.5-1.4c-3.8-0.9-7-2.2-9.7-3.7c-2.7-1.6-4.8-3.4-6.3-5.4c-1.5-2-2.2-4.1-2.2-6.3
		c0-1.9,0.6-3.7,1.7-5.2c1.2-1.6,3-2.3,5.6-2.3c2.9,0,5.1,0.6,6.6,1.7c1.5,1.2,2.3,2.5,2.3,4c0,1.3-0.3,2.8-0.8,4.8
		c-0.5,1.9-0.9,3.3-1.2,4.1c0.3,0.4,1,0.8,1.9,1.4c0.9,0.6,2,1.1,3.3,1.6c1.5,0.6,3.2,1.1,4.9,1.4s4.1,0.5,7.2,0.5
		c2.9,0,5.7-0.4,8.4-1.2c2.7-0.8,5-2,7.1-3.8c2.1-1.8,3.8-3.9,5-6.3c1.2-2.4,1.8-5.6,1.8-9.5c0-2.1-0.3-4.2-0.8-6.3
		c-0.6-2.1-1.6-3.9-3.1-5.4c-1.5-1.5-3.5-2.7-6.1-3.6c-2.6-0.8-5.9-1.3-9.8-1.3h-9.5v-6.8h6.3c6.7,0,11.5-1.5,14.5-4.5
		s4.4-7.5,4.4-13.5c0-4.9-1.4-8.6-4.3-11.1c-2.9-2.5-6.9-3.7-12.1-3.7c-2.5,0-4.6,0.2-6.2,0.7c-1.6,0.5-2.9,1-4,1.4
		c-1.2,0.6-2.2,1.2-3,1.8c-0.8,0.7-1.4,1.2-1.7,1.5c0.3,1.3,0.7,2.8,1.2,4.6c0.5,1.8,0.7,3.6,0.7,5.2c0,1.5-0.8,2.8-2.3,3.9
		c-1.5,1.2-3.8,1.7-6.7,1.7c-2.6,0-4.4-0.7-5.6-2.2c-1.2-1.5-1.8-3.2-1.8-5.2c0-2,0.7-4.1,2.1-6.2s3.5-4.1,6.2-6
		c2.8-1.8,6.1-3.3,10.1-4.5c4-1.1,8.5-1.7,13.7-1.7c5.9,0,10.9,0.7,14.7,2.2c3.9,1.4,6.9,3.2,9.2,5.2c2.2,2,3.7,4.1,4.5,6.3
		c0.8,2.2,1.2,4.1,1.2,5.7c0,2-0.3,3.9-1,5.9c-0.7,2-1.8,3.8-3.3,5.5c-1.7,1.8-3.9,3.5-6.7,5c-2.8,1.5-6.3,2.7-10.5,3.7v0.9
		c2.7,0.2,5.6,0.7,8.7,1.5c3.1,0.8,5.8,1.9,8.3,3.5c2.6,1.6,4.7,3.7,6.3,6.2c1.6,2.5,2.5,5.7,2.5,9.6c0,7.5-3.7,13.7-11.2,18.4
		C1065.6,604.7,1056.3,607,1045.1,607z"/>
</g>
</svg>
