<?xml version="1.0" encoding="utf-8"?>
<!-- Generator: Adobe Illustrator 24.0.1, SVG Export Plug-In . SVG Version: 6.00 Build 0)  -->
<svg version="1.1" id="Layer_1" xmlns="http://www.w3.org/2000/svg" xmlns:xlink="http://www.w3.org/1999/xlink" x="0px" y="0px"
	 viewBox="0 0 1920 837" style="enable-background:new 0 0 1920 837;" xml:space="preserve">
<style type="text/css">
	.st0{fill:#FFFFFF;stroke:#BD545E;stroke-width:8;stroke-miterlimit:10;}
	.st1{fill:#FFFFFF;stroke:#BD545E;stroke-width:5;stroke-miterlimit:10;}
	.st2{fill:#BD545E;}
</style>
<circle class="st0" cx="917.8" cy="435.2" r="334"/>
<circle class="st1" cx="917.8" cy="435.2" r="292.2"/>
<g>
	<g>
		<path class="st2" d="M891.4,490.4c0,26.8-3.5,48.1-39.2,48.1c-4.4,0-10.8-0.6-15.7-1.4v-26.3c2.6,0.3,5.1,0.6,9.3,0.6
			c10.8,0,14.7-2.9,14.7-17.3V335.7h30.9V490.4z"/>
		<path class="st2" d="M938.2,477.1v12.4c0,14.9,4.5,23.2,16.2,23.2c12,0,15.2-11.4,15.2-24.4c0-21.5-4.6-28.2-26.1-45.2
			c-21.6-17-33.1-27.9-33.1-57.6c0-26.4,8-53.1,44.2-53c37,0,42.7,26.4,42.7,48.1v10.7h-30.6v-9.9c0-14-2.4-22.4-12.6-22.4
			c-10,0-12.7,8.7-12.7,22c0,14.2,2.7,21.1,20.3,34c30,22.2,39.2,35.1,39.2,68.6c0,28.4-10,55.4-47.4,55.4
			c-37.1,0-46.1-23.6-46.1-50v-11.9H938.2z"/>
	</g>
</g>
</svg>
