<?xml version="1.0" encoding="utf-8"?>
<!-- Generator: Adobe Illustrator 24.0.1, SVG Export Plug-In . SVG Version: 6.00 Build 0)  -->
<svg version="1.1" id="Layer_1" xmlns="http://www.w3.org/2000/svg" xmlns:xlink="http://www.w3.org/1999/xlink" x="0px" y="0px"
	 viewBox="0 0 512 512" style="enable-background:new 0 0 512 512;" xml:space="preserve">
<style type="text/css">
	.st0{fill:#D05757;}
</style>
<g>
	<g>
		<g>
			<path class="st0" d="M498.4,83.1l-69.8-69.9c-17.6-17.6-48.2-17.6-65.9,0L49.9,329.1c-1.4,1.4-2.4,3.1-2.9,5l-46.5,163
				c-1.2,4.1,0,8.4,3,11.4c2.2,2.2,5.2,3.4,8.2,3.4c1.1,0,2.1-0.1,3.2-0.4L177.7,465c1.9-0.5,3.6-1.5,5-2.9L498.4,149
				c8.8-8.8,13.6-20.5,13.6-32.9S507.2,91.9,498.4,83.1z M312,97.9l42.8,42.8L131.2,364.4l-16-32.1c-2-3.9-6-6.4-10.4-6.4H86.1
				L312,97.9z M28.6,483.4l15.2-53.1l37.9,37.9L28.6,483.4z M162.9,445l-55.7,15.9L51,404.7l16-55.6h30.6l20.1,40.1
				c1.1,2.3,3,4.1,5.2,5.2l40.1,20.1L162.9,445L162.9,445z M186.2,425.9v-18.6c0-4.4-2.5-8.4-6.4-10.4l-32.1-16l223.6-223.6
				l42.8,42.8L186.2,425.9z M481.9,132.8l-51.3,50.9L328.4,81.4l50.8-51.3c8.8-8.8,24.1-8.8,32.9,0l69.8,69.8
				c4.4,4.4,6.8,10.2,6.8,16.5S486.3,128.4,481.9,132.8z"/>
		</g>
	</g>
</g>
</svg>
