<?xml version="1.0" encoding="utf-8"?>
<!-- Generator: Adobe Illustrator 24.0.1, SVG Export Plug-In . SVG Version: 6.00 Build 0)  -->
<svg version="1.1" id="Layer_1" xmlns="http://www.w3.org/2000/svg" xmlns:xlink="http://www.w3.org/1999/xlink" x="0px" y="0px"
	 viewBox="0 0 1500 1500" style="enable-background:new 0 0 1500 1500;" xml:space="preserve">
<style type="text/css">
	.st0{fill:#FFFFFF;stroke:#BD545E;stroke-width:7;stroke-miterlimit:10;}
	.st1{fill:#FFFFFF;stroke:#BD545E;stroke-width:4;stroke-miterlimit:10;}
	.st2{fill:#FFFFFF;}
	.st3{fill:#BD545E;stroke:#BD545E;stroke-width:13;stroke-miterlimit:10;}
</style>
<circle class="st0" cx="750" cy="761" r="700"/>
<circle class="st1" cx="750.1" cy="749.6" r="632.5"/>
<rect x="314.7" y="204.9" transform="matrix(0.866 -0.5 0.5 0.866 -55.176 242.3882)" class="st2" width="219.9" height="38.5"/>
<rect x="544.3" y="125" transform="matrix(0.9812 -0.1929 0.1929 0.9812 -15.7533 116.3214)" class="st2" width="90.5" height="28.2"/>
<g>
	<path class="st3" d="M360.8,391.9h106.4c34.8,0,62.4,7.7,82.7,23.1c20.3,15.4,30.5,35.3,30.5,59.7c0,24.2-8.9,42.8-26.6,55.8
		c-17.7,13-43.2,19.5-76.3,19.5c-12.8,0-27.7-1-44.8-3v81.7c0,17.6,2.4,29.7,7.1,36.4c4.7,6.6,13.4,10,26,10v8.5H360.8v-8.5
		c12.6,0,21.3-3.5,26-10.4c4.7-7,7.1-18.6,7.1-34.8V446.9c0-17.4-2.4-29.5-7.1-36.3s-13.4-10.2-26-10.2V391.9z M468.7,403.1h-36.1
		v130.8c9.8,3.3,21.8,5,36.1,5c21.9,0,39.2-5.6,51.8-16.9c12.7-11.3,19-26.7,19-46.2c0-21-6.3-38.4-18.9-52.1
		C508.1,409.9,490.7,403.1,468.7,403.1z"/>
	<path class="st3" d="M844.9,628.7V544H686v84.7c0,17.3,2.4,29.3,7.3,36.1c4.9,6.8,13.7,10.2,26.5,10.2v8.5H614.4v-8.5
		c12.8,0,21.5-3.4,26.1-10.3c4.6-6.9,7-18.9,7-36V446.9c0-17.9-2.4-30.1-7.1-36.7c-4.7-6.6-13.4-9.8-26-9.8v-8.5h105.4v8.5
		c-12.8,0-21.6,3.5-26.5,10.6c-4.9,7-7.3,19-7.3,35.9v83h158.9v-83c0-17.9-2.3-30.1-6.8-36.7c-4.6-6.5-13.1-9.8-25.7-9.8v-8.5h104.4
		v8.5c-12.4,0-21.1,3.4-25.9,10.2c-4.8,6.8-7.2,18.9-7.2,36.3v181.9c0,17.4,2.4,29.5,7.2,36.2c4.8,6.7,13.4,10.1,25.9,10.1v8.5
		H812.3v-8.5c12.9,0,21.6-3.4,26-10.1C842.7,658.2,844.9,646.2,844.9,628.7z"/>
	<path class="st3" d="M955,391.9h106.4c34.8,0,62.4,7.7,82.7,23.1c20.3,15.4,30.5,35.3,30.5,59.7c0,24.2-8.9,42.8-26.6,55.8
		c-17.7,13-43.2,19.5-76.3,19.5c-12.8,0-27.7-1-44.8-3v81.7c0,17.6,2.4,29.7,7.1,36.4s13.4,10,26,10v8.5H955v-8.5
		c12.6,0,21.3-3.5,26-10.4c4.7-7,7.1-18.6,7.1-34.8V446.9c0-17.4-2.4-29.5-7.1-36.3c-4.7-6.8-13.4-10.2-26-10.2V391.9z
		 M1062.9,403.1h-36v130.8c9.8,3.3,21.8,5,36,5c21.9,0,39.2-5.6,51.8-16.9c12.7-11.3,19-26.7,19-46.2c0-21-6.3-38.4-18.9-52.1
		C1102.3,409.9,1085,403.1,1062.9,403.1z"/>
</g>
<g>
	<path class="st3" d="M494.7,959.3h40.6v5c-12.9,0.3-19.3,7.9-19.3,22.9c0,1.3,0,2.6,0.1,4l8.6,105.9c1,11.3,2.9,18.8,5.8,22.5
		c2.9,3.7,8.1,5.9,15.6,6.6v5h-61.8v-5c6.6-1.1,11.2-3.2,13.9-6.5c2.7-3.2,4-8.2,4-14.9c0-1.4-0.1-2.9-0.1-4.6l-9.2-111.1l-58.9,142
		h-4.5l-58.1-141.7l-9.7,105.7c-0.1,1.7-0.1,3.2-0.1,4.7c0,14.8,7.5,23.6,22.4,26.4v5h-53.5v-5c7.1-1,12.3-3.5,15.5-7.6
		c3.2-4,5.3-12.1,6.5-24.1l10.4-118.2c-6.1-6.5-13.5-10.5-22.4-12v-5h43.5l55,135.2L494.7,959.3z"/>
	<path class="st3" d="M610.1,1025.2v5c-6,0.9-9,4-9,9.3c0,2.1,0.5,4.4,1.6,6.9l25.5,60.1l18.5-56.1c1.5-4.6,2.2-8.3,2.2-11
		c0-5.7-3.6-8.7-10.7-9.1v-5h37.6v5c-5.7,0-10.4,1.9-14.1,5.8c-3.7,3.9-7.1,10.2-10.1,19.1l-42.3,125.2
		c-4.1,11.9-9.4,21.3-15.7,28.2c-6.4,6.9-12.9,10.4-19.5,10.4c-3.9,0-8.3-1.5-13.2-4.5l6.9-18.3c3.7,1.7,7.2,2.5,10.3,2.5
		c6.4,0,11.6-2,15.8-6c4.2-4,7.9-10.7,11.3-20.1l13.6-38.5l-38.1-87.9c-2.8-6.4-5.6-10.6-8.4-12.7c-2.8-2.1-7.2-3.2-13.1-3.3v-5
		H610.1z"/>
	<path class="st3" d="M781.3,956.8h4.8v40.3H781c-1.2-11.1-5.2-19.8-12.1-26.1c-6.9-6.2-15.6-9.4-26-9.4c-9.3,0-16.7,2.3-22.4,7
		c-5.7,4.7-8.5,10.9-8.5,18.8c0,7.2,2.3,13.8,7,19.8c4.7,6,14.8,13.6,30.5,23c18.2,10.8,30.4,20.3,36.6,28.4
		c6.2,8.1,9.4,17.4,9.4,27.8c0,13.5-4.8,25-14.3,34.6c-9.6,9.6-21.1,14.4-34.5,14.4c-7.8,0-17.7-2.1-29.8-6.4
		c-5-1.8-8.1-2.6-9.5-2.6c-2.8,0-5,2.2-6.6,6.6h-5.1v-46.4h5.1c0.1,12.8,4.3,23,12.5,30.8c8.2,7.7,17.9,11.6,28.9,11.6
		c10.4,0,18.8-2.8,25.1-8.4c6.3-5.6,9.4-13,9.4-22.3c0-6.9-2.6-13.6-7.8-19.9c-5.2-6.4-16-14.5-32.4-24.6
		c-13.4-8.3-22.3-14.8-26.8-19.6c-4.5-4.8-7.8-10-9.9-15.8c-2.1-5.7-3.2-12-3.2-18.8c0-13.2,4.3-23.9,13-32.1
		c8.6-8.2,19.9-12.3,33.8-12.3c7.6,0,15.9,1.5,24.9,4.5c4.2,1.4,7.1,2.1,8.8,2.1c1.4,0,2.3-0.3,2.8-0.9
		C780.2,960.2,780.7,958.9,781.3,956.8z"/>
	<path class="st3" d="M1006.9,1178.6l1.9,4.7c-8.4,3.8-17.9,5.7-28.6,5.7c-8.8,0-16.9-1.1-24.5-3.4c-7.5-2.3-14.6-5.8-21.2-10.5
		c-6.6-4.7-14.6-12.6-24.1-23.7c-8.4-9.8-14.8-15.8-19.3-18.2c-19.6-4-36.5-14.4-50.6-31.1c-14.1-16.7-21.2-35.7-21.2-57.1
		c0-15.9,4.1-30.9,12.2-45c8.1-14.1,19.1-25.1,33-33c13.9-8,29.2-11.9,46.1-11.9c26.1,0,48,8.7,65.9,26
		c17.9,17.3,26.8,38.6,26.8,63.9c0,21.3-6.9,40.3-20.7,56.9c-13.8,16.7-31.4,27.1-52.9,31.3c2.1,1.6,5.7,5.8,11,12.4
		c11.2,13.9,20.6,23.3,28.1,28.2c7.5,4.9,15,7.4,22.4,7.4C996.9,1181.2,1002,1180.4,1006.9,1178.6z M977,1046.5c0-26.3-6-47-18-62.1
		c-12-15.1-27.5-22.7-46.6-22.7c-20.2,0-36.4,7.6-48.4,22.8c-12.1,15.2-18.1,35.5-18.1,60.9c0,24.7,6,44.8,17.9,60.3
		c12,15.5,27.6,23.2,46.8,23.2c20,0,36.1-7.5,48.2-22.5C971,1091.3,977,1071.4,977,1046.5z"/>
	<path class="st3" d="M1163.1,1093.6h5.1l-10.5,37.5h-124.5v-5c7,0,12-2.2,15-6.6c3-4.4,4.5-11.8,4.5-22.1V989.2
		c0-9.3-1.4-15.8-4.2-19.4c-2.8-3.7-7.9-5.5-15.3-5.5v-5h61.5v5c-6.8,0-11.7,2.1-14.7,6.3c-3,4.2-4.5,11.1-4.5,20.8v114.8
		c0,6.3,1.3,10.7,4,13c2.7,2.3,7.8,3.5,15.5,3.5h34.1c10.5,0,17.9-1.8,22.1-5.5C1155.4,1113.6,1159.4,1105.8,1163.1,1093.6z"/>
</g>
</svg>
