<?xml version="1.0" encoding="utf-8"?>
<!-- Generator: Adobe Illustrator 24.0.1, SVG Export Plug-In . SVG Version: 6.00 Build 0)  -->
<svg version="1.1" id="Layer_1" xmlns="http://www.w3.org/2000/svg" xmlns:xlink="http://www.w3.org/1999/xlink" x="0px" y="0px"
	 viewBox="0 0 512 512" style="enable-background:new 0 0 512 512;" xml:space="preserve">
<style type="text/css">
	.st0{fill:#589656;}
</style>
<g>
	<g id="XMLID_1343_">
		<g id="XMLID_74_">
			<path id="XMLID_76_" class="st0" d="M383.5,138c5.5,0,10-4.5,10-10s-4.5-10-10-10h0c-5.5,0-10,4.5-10,10
				C373.5,133.5,378,138,383.5,138z"/>
			<path id="XMLID_87_" class="st0" d="M507.2,191.8l-84-51.3c-4.7-2.9-10.9-1.4-13.7,3.3s-1.4,10.9,3.3,13.7l70,42.7l-211.4,129
				l-211.4-129l211.4-129l73,44.5c4.7,2.9,10.9,1.4,13.7-3.3s1.4-10.9-3.3-13.7L276.7,51c-3.2-2-7.2-2-10.4,0L35.7,191.8
				c-3,1.8-4.8,5-4.8,8.5c0,0,0,0,0,0v98.5C13.1,303.7,0,320,0,339.3v106c0,5.5,4.5,10,10,10h64c5.5,0,10-4.5,10-10v-106
				c0-20.1-14.2-37-33.1-41v-80.1l70.1,42.8v110.6c0,3.5,1.8,6.7,4.8,8.5l122.9,75.1c7.9,4.8,16.8,7.3,25.7,7.3s17.8-2.4,25.7-7.3
				L423,380.1c3-1.8,4.8-5,4.8-8.5V257.3l79.4-48.5c3-1.8,4.8-5.1,4.8-8.5S510.2,193.6,507.2,191.8z M20,435.3v-66.7h44v66.7H20z
				 M64,339.3v9.3H20v-9.3c0-12.1,9.9-22,22-22S64,327.2,64,339.3z M407.8,366l-28.2,17.2v-13.9c0-5.5-4.5-10-10-10s-10,4.5-10,10
				v26.1l-70,42.7c-9.4,5.7-21.1,5.7-30.5,0L141,366v-92.8l125.2,76.5c1.6,1,3.4,1.5,5.2,1.5s3.6-0.5,5.2-1.5l131.2-80.1V366z"/>
			<path id="XMLID_91_" class="st0" d="M369.7,339.3c2.6,0,5.2-1.1,7.1-2.9c1.9-1.9,2.9-4.4,2.9-7.1s-1.1-5.2-2.9-7.1
				c-1.9-1.9-4.4-2.9-7.1-2.9c-2.6,0-5.2,1.1-7.1,2.9c-1.9,1.9-2.9,4.4-2.9,7.1s1.1,5.2,2.9,7.1C364.5,338.2,367,339.3,369.7,339.3z
				"/>
			<g id="XMLID_817_">
				<path id="XMLID_73_" class="st0" d="M271.5,210.3c-2.6,0-5.2-1.1-7.1-2.9c-1.9-1.9-2.9-4.4-2.9-7.1s1.1-5.2,2.9-7.1
					s4.4-2.9,7.1-2.9s5.2,1.1,7.1,2.9c1.9,1.9,2.9,4.4,2.9,7.1s-1.1,5.2-2.9,7.1S274.1,210.3,271.5,210.3z"/>
			</g>
		</g>
	</g>
</g>
</svg>
