<?xml version="1.0" encoding="utf-8"?>
<!-- Generator: Adobe Illustrator 24.0.1, SVG Export Plug-In . SVG Version: 6.00 Build 0)  -->
<svg version="1.1" id="Layer_5" xmlns="http://www.w3.org/2000/svg" xmlns:xlink="http://www.w3.org/1999/xlink" x="0px" y="0px"
	 viewBox="0 0 512 512" style="enable-background:new 0 0 512 512;" xml:space="preserve">
<style type="text/css">
	.st0{fill:#589656;}
</style>
<g>
	<path class="st0" d="M393,378.3l-82.1-33.6c-9.1-3.7-14.9-12.4-14.9-22.2v-5.7c24.6-17,43.4-41,54.1-68.8h1.9c22.1,0,40-17.9,40-40
		v-68.8c0-40.1-18-77.4-49.2-102.5C319.6,18.2,290.5,8,260.8,8h-27.4C184.7,8,140,32.5,113.8,73.6L93,106.3l8.4,5.6
		c11.6,7.8,18.6,20.8,18.6,34.8V208c0,22.1,17.9,40,40,40h1.9c10.7,27.8,29.5,51.8,54.1,68.8v5.7c0,9.8-5.8,18.5-14.9,22.2
		L119,378.3C71,397.9,40,444.1,40,496v8h432v-8C472,444.1,441,397.9,393,378.3L393,378.3z M327.3,404.5l-32.5,24.4l21.6-64.7
		l4.6,1.9L327.3,404.5z M191.1,366.1l4.6-1.9l21.6,64.7l-32.5-24.4L191.1,366.1z M218,431.4l18.9,56.6h-1.6l-33-33L218,431.4z
		 M210.4,357.9c1.2-0.6,2.3-1.3,3.4-2l42.2,48.2l42.2-48.2c1.1,0.7,2.2,1.4,3.4,2L258.2,488h-4.5L210.4,357.9z M294,431.4l15.7,23.6
		l-33,33h-1.6L294,431.4z M296,160c-11.8,0-22,6.5-27.6,16h-24.9c-5.6-9.5-15.8-16-27.6-16h-48v-39.8c22.4,0.9,44.2,6,64.8,15.2
		c24.9,11.1,51.4,16.7,78.6,16.7H344v8H296z M328,176v16c0,8.8-7.2,16-16,16h-16c-8.8,0-16-7.2-16-16s7.2-16,16-16H328z M232,192
		c0,8.8-7.2,16-16,16h-16c-8.8,0-16-7.2-16-16v-16h32C224.8,176,232,183.2,232,192z M355.3,231.7c3-11.9,4.7-24.2,4.7-36.9v-9.3
		c9.3,3.3,16,12.1,16,22.5C376,220.1,367,230,355.3,231.7z M114.8,101.9l12.5-19.7C150.5,45.8,190.2,24,233.4,24h27.4
		c26.1,0,51.6,9,72,25.2c27.5,22,43.2,54.8,43.2,90v37c-4.7-3.5-10.1-6.2-16-7.4V136h-48.6c-25,0-49.3-5.2-72.2-15.3
		C214.3,109.6,187.9,104,160,104h-8v64.8c-5.9,1.2-11.3,3.9-16,7.4v-29.6C136,129.2,128.2,112.8,114.8,101.9L114.8,101.9z M136,208
		c0-10.4,6.7-19.2,16-22.5v9.3c0,12.7,1.7,25,4.7,36.9C145,230,136,220.1,136,208z M168,194.8V192c0,17.6,14.4,32,32,32h16
		c17.6,0,32-14.4,32-32h16c0,17.6,14.4,32,32,32h16c17.6,0,32-14.4,32-32v2.8c0,56.2-35.2,106-88,124.7
		C203.2,300.8,168,251,168,194.8L168,194.8z M253.5,335.6l2.5,0.8l2.5-0.8c7.6-2.5,14.8-5.6,21.8-9.2c0.6,6.7,2.8,13,6.4,18.4
		L256,379.8l-30.7-35.1c3.6-5.4,5.8-11.7,6.4-18.4C238.6,330,245.9,333.1,253.5,335.6L253.5,335.6z M125.1,393.1l48.6-19.9
		l-6.4,38.3l29.8,22.4L181.7,457l31,31H136v-48h-16v48H56.3C59.3,446,85.6,409.3,125.1,393.1L125.1,393.1z M392,488v-48h-16v48
		h-76.7l31-31l-15.4-23.2l29.8-22.4l-6.4-38.3l48.6,19.9c39.5,16.2,65.8,52.8,68.8,94.9L392,488L392,488z"/>
	<path class="st0" d="M288,256h-16c0,8.8-7.2,16-16,16s-16-7.2-16-16h-16c0,17.6,14.4,32,32,32S288,273.6,288,256z"/>
	<path class="st0" d="M312.8,74.2c6.6,5.3,12.3,11.4,16.9,18.3l13.2-9c-5.6-8.2-12.3-15.5-20.2-21.8c-17.5-14-39.6-21.7-62-21.7H248
		v16h12.8C279.6,56,298.1,62.5,312.8,74.2z"/>
	<path class="st0" d="M342.2,121.7l15.6-3.4c-1.3-6-3.1-11.8-5.4-17.4l-14.8,6.2C339.5,111.8,341.1,116.7,342.2,121.7z"/>
</g>
</svg>
